<?xml version="1.0" encoding="UTF-8"?>
<svg xmlns="http://www.w3.org/2000/svg" width="1240" height="500" viewBox="0 0 1240 500" shape-rendering="geometricPrecision" text-rendering="geometricPrecision">
  <defs>
    <marker id="arrow" viewBox="0 0 10 10" refX="9" refY="5" markerWidth="7" markerHeight="7" orient="auto-start-reverse">
      <path d="M 0 0 L 10 5 L 0 10 z" fill="#202020" />
    </marker>
    <marker id="dashArrow" viewBox="0 0 10 10" refX="9" refY="5" markerWidth="7" markerHeight="7" orient="auto-start-reverse">
      <path d="M 0 0 L 10 5 L 0 10 z" fill="#555" />
    </marker>
  </defs>
  <rect x="0" y="0" width="1240" height="500" fill="#ffffff"/>
  <text x="620" y="58" font-family="SimHei, PingFang SC, sans-serif" font-size="48" font-weight="700" fill="#202020" text-anchor="middle" dominant-baseline="middle">菜品管理构件图</text>
<rect x="10" y="100" width="1220" height="260" fill="#fff" stroke="#202020" stroke-width="3"/>
<rect x="20" y="167" width="220" height="126" fill="#fff" stroke="#202020" stroke-width="3"/>
<rect x="36" y="197" width="34" height="20" fill="#fff" stroke="#202020" stroke-width="2.4"/>
<rect x="36" y="245" width="34" height="20" fill="#fff" stroke="#202020" stroke-width="2.4"/>
<rect x="70" y="190" width="150" height="90" rx="0" ry="0" fill="#fff" stroke="#202020" stroke-width="0"/>
<text x="145" y="216" font-family="SimHei, PingFang SC, sans-serif" font-size="31" font-weight="400" fill="#202020" text-anchor="middle" dominant-baseline="middle">后台菜品</text>
<text x="145" y="254" font-family="SimHei, PingFang SC, sans-serif" font-size="31" font-weight="400" fill="#202020" text-anchor="middle" dominant-baseline="middle">页面</text>
<rect x="265" y="167" width="220" height="126" fill="#fff" stroke="#202020" stroke-width="3"/>
<rect x="281" y="197" width="34" height="20" fill="#fff" stroke="#202020" stroke-width="2.4"/>
<rect x="281" y="245" width="34" height="20" fill="#fff" stroke="#202020" stroke-width="2.4"/>
<rect x="320" y="190" width="150" height="90" rx="0" ry="0" fill="#fff" stroke="#202020" stroke-width="0"/>
<text x="395" y="219" font-family="SimHei, PingFang SC, sans-serif" font-size="26" font-weight="400" fill="#202020" text-anchor="middle" dominant-baseline="middle">Caipin</text>
<text x="395" y="251" font-family="SimHei, PingFang SC, sans-serif" font-size="26" font-weight="400" fill="#202020" text-anchor="middle" dominant-baseline="middle">Controller</text>
<rect x="510" y="167" width="220" height="126" fill="#fff" stroke="#202020" stroke-width="3"/>
<rect x="526" y="197" width="34" height="20" fill="#fff" stroke="#202020" stroke-width="2.4"/>
<rect x="526" y="245" width="34" height="20" fill="#fff" stroke="#202020" stroke-width="2.4"/>
<rect x="560" y="190" width="150" height="90" rx="0" ry="0" fill="#fff" stroke="#202020" stroke-width="0"/>
<text x="635" y="216" font-family="SimHei, PingFang SC, sans-serif" font-size="31" font-weight="400" fill="#202020" text-anchor="middle" dominant-baseline="middle">Caipin</text>
<text x="635" y="254" font-family="SimHei, PingFang SC, sans-serif" font-size="31" font-weight="400" fill="#202020" text-anchor="middle" dominant-baseline="middle">Service</text>
<rect x="755" y="167" width="220" height="126" fill="#fff" stroke="#202020" stroke-width="3"/>
<rect x="771" y="197" width="34" height="20" fill="#fff" stroke="#202020" stroke-width="2.4"/>
<rect x="771" y="245" width="34" height="20" fill="#fff" stroke="#202020" stroke-width="2.4"/>
<rect x="810" y="190" width="150" height="90" rx="0" ry="0" fill="#fff" stroke="#202020" stroke-width="0"/>
<text x="885" y="235" font-family="SimHei, PingFang SC, sans-serif" font-size="26" font-weight="400" fill="#202020" text-anchor="middle" dominant-baseline="middle">CaipinDao</text>
<rect x="995" y="167" width="230" height="126" fill="#fff" stroke="#202020" stroke-width="3"/>
<rect x="1011" y="197" width="34" height="20" fill="#fff" stroke="#202020" stroke-width="2.4"/>
<rect x="1011" y="245" width="34" height="20" fill="#fff" stroke="#202020" stroke-width="2.4"/>
<rect x="1050" y="190" width="160" height="90" rx="0" ry="0" fill="#fff" stroke="#202020" stroke-width="0"/>
<text x="1130" y="235" font-family="SimHei, PingFang SC, sans-serif" font-size="32" font-weight="400" fill="#202020" text-anchor="middle" dominant-baseline="middle">caipin表</text>
<path d="M 240 230 L 260 230" fill="none" stroke="#202020" stroke-width="3" stroke-linecap="square" stroke-linejoin="miter" marker-end="url(#arrow)"/>
<text x="253" y="146" font-family="SimHei, PingFang SC, sans-serif" font-size="30" font-weight="400" fill="#202020" text-anchor="middle" dominant-baseline="middle">HTTP请求</text>
<path d="M 490 230 L 510 230" fill="none" stroke="#202020" stroke-width="3" stroke-linecap="square" stroke-linejoin="miter" marker-end="url(#arrow)"/>
<text x="498" y="146" font-family="SimHei, PingFang SC, sans-serif" font-size="30" font-weight="400" fill="#202020" text-anchor="middle" dominant-baseline="middle">参数校验</text>
<path d="M 730 230 L 750 230" fill="none" stroke="#202020" stroke-width="3" stroke-linecap="square" stroke-linejoin="miter" marker-end="url(#arrow)"/>
<text x="743" y="146" font-family="SimHei, PingFang SC, sans-serif" font-size="30" font-weight="400" fill="#202020" text-anchor="middle" dominant-baseline="middle">业务调用</text>
<path d="M 980 230 L 1000 230" fill="none" stroke="#202020" stroke-width="3" stroke-linecap="square" stroke-linejoin="miter" marker-end="url(#arrow)"/>
<text x="988" y="146" font-family="SimHei, PingFang SC, sans-serif" font-size="30" font-weight="400" fill="#202020" text-anchor="middle" dominant-baseline="middle">数据访问</text>
<text x="620" y="430" font-family="SimHei, PingFang SC, sans-serif" font-size="32" font-weight="400" fill="#202020" text-anchor="middle" dominant-baseline="middle">页面构件、控制构件、业务构件、数据访问构件和数据表依次协作完成该功能。</text>
</svg>