<?xml version="1.0" encoding="UTF-8"?>
<svg xmlns="http://www.w3.org/2000/svg" width="1500" height="920" viewBox="0 0 1500 920" shape-rendering="geometricPrecision" text-rendering="geometricPrecision">
  <defs>
    <marker id="arrow" viewBox="0 0 10 10" refX="9" refY="5" markerWidth="7" markerHeight="7" orient="auto-start-reverse">
      <path d="M 0 0 L 10 5 L 0 10 z" fill="#202020" />
    </marker>
    <marker id="dashArrow" viewBox="0 0 10 10" refX="9" refY="5" markerWidth="7" markerHeight="7" orient="auto-start-reverse">
      <path d="M 0 0 L 10 5 L 0 10 z" fill="#555" />
    </marker>
  </defs>
  <rect x="0" y="0" width="1500" height="920" fill="#ffffff"/>
  <rect x="610" y="410" width="280" height="80" rx="0" ry="0" fill="#fff" stroke="#202020" stroke-width="3.2"/>
<text x="750" y="450" font-family="SimHei, PingFang SC, sans-serif" font-size="38" font-weight="400" fill="#202020" text-anchor="middle" dominant-baseline="middle">用户</text>
<ellipse cx="300" cy="160" rx="120" ry="40" fill="#fff" stroke="#202020" stroke-width="3"/>
<text x="300" y="160" font-family="SimSun, Songti SC, serif" font-size="27" font-weight="400" fill="#202020" text-anchor="middle" dominant-baseline="middle">用户编号</text>
<path d="M 610 450 L 420 160" fill="none" stroke="#202020" stroke-width="2.6" stroke-linecap="square" stroke-linejoin="miter"/>
<ellipse cx="300" cy="260" rx="120" ry="40" fill="#fff" stroke="#202020" stroke-width="3"/>
<text x="300" y="260" font-family="SimSun, Songti SC, serif" font-size="27" font-weight="400" fill="#202020" text-anchor="middle" dominant-baseline="middle">账号</text>
<path d="M 610 450 L 420 260" fill="none" stroke="#202020" stroke-width="2.6" stroke-linecap="square" stroke-linejoin="miter"/>
<ellipse cx="300" cy="350" rx="120" ry="40" fill="#fff" stroke="#202020" stroke-width="3"/>
<text x="300" y="350" font-family="SimSun, Songti SC, serif" font-size="27" font-weight="400" fill="#202020" text-anchor="middle" dominant-baseline="middle">密码</text>
<path d="M 610 450 L 420 350" fill="none" stroke="#202020" stroke-width="2.6" stroke-linecap="square" stroke-linejoin="miter"/>
<ellipse cx="300" cy="450" rx="120" ry="40" fill="#fff" stroke="#202020" stroke-width="3"/>
<text x="300" y="450" font-family="SimSun, Songti SC, serif" font-size="27" font-weight="400" fill="#202020" text-anchor="middle" dominant-baseline="middle">姓名</text>
<path d="M 610 450 L 420 450" fill="none" stroke="#202020" stroke-width="2.6" stroke-linecap="square" stroke-linejoin="miter"/>
<ellipse cx="300" cy="550" rx="120" ry="40" fill="#fff" stroke="#202020" stroke-width="3"/>
<text x="300" y="550" font-family="SimSun, Songti SC, serif" font-size="27" font-weight="400" fill="#202020" text-anchor="middle" dominant-baseline="middle">手机号</text>
<path d="M 610 450 L 420 550" fill="none" stroke="#202020" stroke-width="2.6" stroke-linecap="square" stroke-linejoin="miter"/>
<ellipse cx="300" cy="650" rx="120" ry="40" fill="#fff" stroke="#202020" stroke-width="3"/>
<text x="300" y="650" font-family="SimSun, Songti SC, serif" font-size="27" font-weight="400" fill="#202020" text-anchor="middle" dominant-baseline="middle">身份证号</text>
<path d="M 610 450 L 420 650" fill="none" stroke="#202020" stroke-width="2.6" stroke-linecap="square" stroke-linejoin="miter"/>
<ellipse cx="300" cy="750" rx="120" ry="40" fill="#fff" stroke="#202020" stroke-width="3"/>
<text x="300" y="750" font-family="SimSun, Songti SC, serif" font-size="27" font-weight="400" fill="#202020" text-anchor="middle" dominant-baseline="middle">头像</text>
<path d="M 610 450 L 420 750" fill="none" stroke="#202020" stroke-width="2.6" stroke-linecap="square" stroke-linejoin="miter"/>
<ellipse cx="1200" cy="160" rx="120" ry="40" fill="#fff" stroke="#202020" stroke-width="3"/>
<text x="1200" y="160" font-family="SimSun, Songti SC, serif" font-size="27" font-weight="400" fill="#202020" text-anchor="middle" dominant-baseline="middle">性别</text>
<path d="M 890 450 L 1080 160" fill="none" stroke="#202020" stroke-width="2.6" stroke-linecap="square" stroke-linejoin="miter"/>
<ellipse cx="1200" cy="260" rx="120" ry="40" fill="#fff" stroke="#202020" stroke-width="3"/>
<text x="1200" y="260" font-family="SimSun, Songti SC, serif" font-size="27" font-weight="400" fill="#202020" text-anchor="middle" dominant-baseline="middle">邮箱</text>
<path d="M 890 450 L 1080 260" fill="none" stroke="#202020" stroke-width="2.6" stroke-linecap="square" stroke-linejoin="miter"/>
<ellipse cx="1200" cy="350" rx="120" ry="40" fill="#fff" stroke="#202020" stroke-width="3"/>
<text x="1200" y="350" font-family="SimSun, Songti SC, serif" font-size="27" font-weight="400" fill="#202020" text-anchor="middle" dominant-baseline="middle">账户余额</text>
<path d="M 890 450 L 1080 350" fill="none" stroke="#202020" stroke-width="2.6" stroke-linecap="square" stroke-linejoin="miter"/>
<ellipse cx="1200" cy="450" rx="120" ry="40" fill="#fff" stroke="#202020" stroke-width="3"/>
<text x="1200" y="450" font-family="SimSun, Songti SC, serif" font-size="27" font-weight="400" fill="#202020" text-anchor="middle" dominant-baseline="middle">累计积分</text>
<path d="M 890 450 L 1080 450" fill="none" stroke="#202020" stroke-width="2.6" stroke-linecap="square" stroke-linejoin="miter"/>
<ellipse cx="1200" cy="550" rx="120" ry="40" fill="#fff" stroke="#202020" stroke-width="3"/>
<text x="1200" y="550" font-family="SimSun, Songti SC, serif" font-size="27" font-weight="400" fill="#202020" text-anchor="middle" dominant-baseline="middle">当前积分</text>
<path d="M 890 450 L 1080 550" fill="none" stroke="#202020" stroke-width="2.6" stroke-linecap="square" stroke-linejoin="miter"/>
<ellipse cx="1200" cy="650" rx="120" ry="40" fill="#fff" stroke="#202020" stroke-width="3"/>
<text x="1200" y="650" font-family="SimSun, Songti SC, serif" font-size="27" font-weight="400" fill="#202020" text-anchor="middle" dominant-baseline="middle">会员等级</text>
<path d="M 890 450 L 1080 650" fill="none" stroke="#202020" stroke-width="2.6" stroke-linecap="square" stroke-linejoin="miter"/>
<ellipse cx="1200" cy="750" rx="120" ry="40" fill="#fff" stroke="#202020" stroke-width="3"/>
<text x="1200" y="750" font-family="SimSun, Songti SC, serif" font-size="27" font-weight="400" fill="#202020" text-anchor="middle" dominant-baseline="middle">创建时间</text>
<path d="M 890 450 L 1080 750" fill="none" stroke="#202020" stroke-width="2.6" stroke-linecap="square" stroke-linejoin="miter"/>
</svg>