<?xml version="1.0" encoding="UTF-8"?>
<svg xmlns="http://www.w3.org/2000/svg" width="1140" height="1500" viewBox="0 0 1140 1500" shape-rendering="geometricPrecision" text-rendering="geometricPrecision">
  <defs>
    <marker id="arrow" viewBox="0 0 10 10" refX="9" refY="5" markerWidth="7" markerHeight="7" orient="auto-start-reverse">
      <path d="M 0 0 L 10 5 L 0 10 z" fill="#202020" />
    </marker>
    <marker id="dashArrow" viewBox="0 0 10 10" refX="9" refY="5" markerWidth="7" markerHeight="7" orient="auto-start-reverse">
      <path d="M 0 0 L 10 5 L 0 10 z" fill="#555" />
    </marker>
  </defs>
  <rect x="0" y="0" width="1140" height="1500" fill="#ffffff"/>
  <rect x="40" y="40" width="1060" height="1420" fill="#fff" stroke="#202020" stroke-width="3"/>
<rect x="40" y="40" width="300" height="70" fill="#f5f5f5" stroke="#202020" stroke-width="2.5"/>
<text x="190" y="75" font-family="SimHei, PingFang SC, sans-serif" font-size="36" font-weight="700" fill="#202020" text-anchor="middle" dominant-baseline="middle">用户</text>
<line x1="40" y1="110" x2="40" y2="1460" stroke="#202020" stroke-width="2"/>
<rect x="340" y="40" width="460" height="70" fill="#f5f5f5" stroke="#202020" stroke-width="2.5"/>
<text x="570" y="75" font-family="SimHei, PingFang SC, sans-serif" font-size="36" font-weight="700" fill="#202020" text-anchor="middle" dominant-baseline="middle">系统</text>
<line x1="340" y1="110" x2="340" y2="1460" stroke="#202020" stroke-width="2"/>
<rect x="800" y="40" width="300" height="70" fill="#f5f5f5" stroke="#202020" stroke-width="2.5"/>
<text x="950" y="75" font-family="SimHei, PingFang SC, sans-serif" font-size="36" font-weight="700" fill="#202020" text-anchor="middle" dominant-baseline="middle">员工/管理员</text>
<line x1="800" y1="110" x2="800" y2="1460" stroke="#202020" stroke-width="2"/>
<line x1="1100" y1="110" x2="1100" y2="1460" stroke="#202020" stroke-width="2"/>
<rect x="50" y="150" width="280" height="70" rx="16" ry="16" fill="#fff" stroke="#202020" stroke-width="3"/>
<text x="190" y="185" font-family="SimHei, PingFang SC, sans-serif" font-size="29" font-weight="400" fill="#202020" text-anchor="middle" dominant-baseline="middle">登录系统</text>
<path d="M 190 220 L 190 270" fill="none" stroke="#202020" stroke-width="2.8" stroke-linecap="square" stroke-linejoin="miter" marker-end="url(#arrow)"/>
<rect x="50" y="270" width="280" height="70" rx="16" ry="16" fill="#fff" stroke="#202020" stroke-width="3"/>
<text x="190" y="305" font-family="SimHei, PingFang SC, sans-serif" font-size="29" font-weight="400" fill="#202020" text-anchor="middle" dominant-baseline="middle">浏览菜品</text>
<path d="M 190 340 L 190 390" fill="none" stroke="#202020" stroke-width="2.8" stroke-linecap="square" stroke-linejoin="miter" marker-end="url(#arrow)"/>
<rect x="50" y="390" width="280" height="70" rx="16" ry="16" fill="#fff" stroke="#202020" stroke-width="3"/>
<text x="190" y="425" font-family="SimHei, PingFang SC, sans-serif" font-size="29" font-weight="400" fill="#202020" text-anchor="middle" dominant-baseline="middle">选择菜品数量</text>
<path d="M 190 460 L 570 520" fill="none" stroke="#202020" stroke-width="2.8" stroke-linecap="square" stroke-linejoin="miter" marker-end="url(#arrow)"/>
<path d="M 570 460 L 720 520 L 570 580 L 420 520 Z" fill="#fff" stroke="#202020" stroke-width="3"/>
<text x="570" y="520" font-family="SimSun, Songti SC, serif" font-size="27" font-weight="400" fill="#202020" text-anchor="middle" dominant-baseline="middle">库存是否充足</text>
<path d="M 570 580 L 570 660" fill="none" stroke="#202020" stroke-width="2.8" stroke-linecap="square" stroke-linejoin="miter" marker-end="url(#arrow)"/>
<text x="604" y="625" font-family="SimSun, Songti SC, serif" font-size="26" font-weight="400" fill="#202020" text-anchor="middle" dominant-baseline="middle">是</text>
<text x="735" y="492" font-family="SimSun, Songti SC, serif" font-size="26" font-weight="400" fill="#202020" text-anchor="middle" dominant-baseline="middle">否</text>
<rect x="830" y="490" width="240" height="70" rx="16" ry="16" fill="#fff" stroke="#202020" stroke-width="3"/>
<text x="950" y="525" font-family="SimHei, PingFang SC, sans-serif" font-size="29" font-weight="400" fill="#202020" text-anchor="middle" dominant-baseline="middle">提示库存不足</text>
<path d="M 570 640 L 720 700 L 570 760 L 420 700 Z" fill="#fff" stroke="#202020" stroke-width="3"/>
<text x="570" y="700" font-family="SimSun, Songti SC, serif" font-size="27" font-weight="400" fill="#202020" text-anchor="middle" dominant-baseline="middle">余额是否充足</text>
<path d="M 570 760 L 570 840" fill="none" stroke="#202020" stroke-width="2.8" stroke-linecap="square" stroke-linejoin="miter" marker-end="url(#arrow)"/>
<text x="604" y="805" font-family="SimSun, Songti SC, serif" font-size="26" font-weight="400" fill="#202020" text-anchor="middle" dominant-baseline="middle">是</text>
<text x="735" y="672" font-family="SimSun, Songti SC, serif" font-size="26" font-weight="400" fill="#202020" text-anchor="middle" dominant-baseline="middle">否</text>
<rect x="830" y="670" width="240" height="70" rx="16" ry="16" fill="#fff" stroke="#202020" stroke-width="3"/>
<text x="950" y="705" font-family="SimHei, PingFang SC, sans-serif" font-size="29" font-weight="400" fill="#202020" text-anchor="middle" dominant-baseline="middle">提示余额不足</text>
<rect x="410" y="840" width="320" height="70" rx="16" ry="16" fill="#fff" stroke="#202020" stroke-width="3"/>
<text x="570" y="875" font-family="SimHei, PingFang SC, sans-serif" font-size="29" font-weight="400" fill="#202020" text-anchor="middle" dominant-baseline="middle">生成订单并扣减库存</text>
<path d="M 570 910 L 570 970" fill="none" stroke="#202020" stroke-width="2.8" stroke-linecap="square" stroke-linejoin="miter" marker-end="url(#arrow)"/>
<rect x="410" y="970" width="320" height="70" rx="16" ry="16" fill="#fff" stroke="#202020" stroke-width="3"/>
<text x="570" y="1005" font-family="SimHei, PingFang SC, sans-serif" font-size="29" font-weight="400" fill="#202020" text-anchor="middle" dominant-baseline="middle">扣减余额并累计积分</text>
<path d="M 570 1040 L 950 1090" fill="none" stroke="#202020" stroke-width="2.8" stroke-linecap="square" stroke-linejoin="miter" marker-end="url(#arrow)"/>
<rect x="830" y="1060" width="240" height="70" rx="16" ry="16" fill="#fff" stroke="#202020" stroke-width="3"/>
<text x="950" y="1095" font-family="SimHei, PingFang SC, sans-serif" font-size="29" font-weight="400" fill="#202020" text-anchor="middle" dominant-baseline="middle">处理订单发货</text>
<path d="M 950 1130 L 190 1190" fill="none" stroke="#202020" stroke-width="2.8" stroke-linecap="square" stroke-linejoin="miter" marker-end="url(#arrow)"/>
<rect x="50" y="1160" width="280" height="70" rx="16" ry="16" fill="#fff" stroke="#202020" stroke-width="3"/>
<text x="190" y="1195" font-family="SimHei, PingFang SC, sans-serif" font-size="29" font-weight="400" fill="#202020" text-anchor="middle" dominant-baseline="middle">确认收货</text>
<path d="M 190 1230 L 190 1290" fill="none" stroke="#202020" stroke-width="2.8" stroke-linecap="square" stroke-linejoin="miter" marker-end="url(#arrow)"/>
<rect x="50" y="1290" width="280" height="70" rx="16" ry="16" fill="#fff" stroke="#202020" stroke-width="3"/>
<text x="190" y="1325" font-family="SimHei, PingFang SC, sans-serif" font-size="29" font-weight="400" fill="#202020" text-anchor="middle" dominant-baseline="middle">提交评价</text>
<path d="M 190 1360 L 570 1390" fill="none" stroke="#202020" stroke-width="2.8" stroke-linecap="square" stroke-linejoin="miter" marker-end="url(#arrow)"/>
<rect x="440" y="1360" width="260" height="70" rx="16" ry="16" fill="#fff" stroke="#202020" stroke-width="3"/>
<text x="570" y="1395" font-family="SimHei, PingFang SC, sans-serif" font-size="29" font-weight="400" fill="#202020" text-anchor="middle" dominant-baseline="middle">更新订单状态</text>
</svg>