<?xml version="1.0" encoding="UTF-8"?>
<svg xmlns="http://www.w3.org/2000/svg" width="1300" height="880" viewBox="0 0 1300 880" shape-rendering="geometricPrecision" text-rendering="geometricPrecision">
  <defs>
    <marker id="arrow" viewBox="0 0 10 10" refX="9" refY="5" markerWidth="7" markerHeight="7" orient="auto-start-reverse">
      <path d="M 0 0 L 10 5 L 0 10 z" fill="#202020" />
    </marker>
    <marker id="dashArrow" viewBox="0 0 10 10" refX="9" refY="5" markerWidth="7" markerHeight="7" orient="auto-start-reverse">
      <path d="M 0 0 L 10 5 L 0 10 z" fill="#555" />
    </marker>
  </defs>
  <rect x="0" y="0" width="1300" height="880" fill="#ffffff"/>
  <text x="650" y="48" font-family="SimHei, PingFang SC, sans-serif" font-size="44" font-weight="700" fill="#202020" text-anchor="middle" dominant-baseline="middle">菜品管理时序图</text>
<circle cx="90" cy="130" r="18" fill="#fff" stroke="#202020" stroke-width="3"/>
<line x1="90" y1="150" x2="90" y2="220" stroke="#202020" stroke-width="3"/>
<line x1="50" y1="170" x2="120" y2="170" stroke="#202020" stroke-width="3"/>
<line x1="90" y1="220" x2="50" y2="270" stroke="#202020" stroke-width="3"/>
<line x1="90" y1="220" x2="120" y2="270" stroke="#202020" stroke-width="3"/>
<text x="85" y="316" font-family="SimSun, Songti SC, serif" font-size="28" font-weight="400" fill="#202020" text-anchor="middle" dominant-baseline="middle">管理员</text>
<rect x="160" y="90" width="170" height="70" rx="0" ry="0" fill="#fff" stroke="#202020" stroke-width="3"/>
<text x="245" y="125" font-family="SimSun, Songti SC, serif" font-size="29" font-weight="400" fill="#202020" text-anchor="middle" dominant-baseline="middle">前端页面</text>
<line x1="245" y1="156" x2="245" y2="820" stroke="#888" stroke-width="2.4" stroke-dasharray="8 6"/>
<rect x="230" y="210" width="24" height="360" fill="#fff" stroke="#202020" stroke-width="2.4"/>
<rect x="370" y="90" width="170" height="70" rx="0" ry="0" fill="#fff" stroke="#202020" stroke-width="3"/>
<text x="455" y="125" font-family="SimSun, Songti SC, serif" font-size="27" font-weight="400" fill="#202020" text-anchor="middle" dominant-baseline="middle">Controller</text>
<line x1="455" y1="156" x2="455" y2="820" stroke="#888" stroke-width="2.4" stroke-dasharray="8 6"/>
<rect x="440" y="250" width="24" height="340" fill="#fff" stroke="#202020" stroke-width="2.4"/>
<rect x="580" y="90" width="170" height="70" rx="0" ry="0" fill="#fff" stroke="#202020" stroke-width="3"/>
<text x="665" y="125" font-family="SimSun, Songti SC, serif" font-size="29" font-weight="400" fill="#202020" text-anchor="middle" dominant-baseline="middle">Service</text>
<line x1="665" y1="156" x2="665" y2="820" stroke="#888" stroke-width="2.4" stroke-dasharray="8 6"/>
<rect x="650" y="280" width="24" height="320" fill="#fff" stroke="#202020" stroke-width="2.4"/>
<rect x="790" y="90" width="170" height="70" rx="0" ry="0" fill="#fff" stroke="#202020" stroke-width="3"/>
<text x="875" y="125" font-family="SimSun, Songti SC, serif" font-size="29" font-weight="400" fill="#202020" text-anchor="middle" dominant-baseline="middle">Mapper</text>
<line x1="875" y1="156" x2="875" y2="820" stroke="#888" stroke-width="2.4" stroke-dasharray="8 6"/>
<rect x="860" y="320" width="24" height="300" fill="#fff" stroke="#202020" stroke-width="2.4"/>
<rect x="1000" y="90" width="170" height="70" rx="0" ry="0" fill="#fff" stroke="#202020" stroke-width="3"/>
<text x="1085" y="125" font-family="SimSun, Songti SC, serif" font-size="29" font-weight="400" fill="#202020" text-anchor="middle" dominant-baseline="middle">MySQL</text>
<line x1="1085" y1="156" x2="1085" y2="820" stroke="#888" stroke-width="2.4" stroke-dasharray="8 6"/>
<rect x="1070" y="350" width="24" height="280" fill="#fff" stroke="#202020" stroke-width="2.4"/>
<path d="M 130 220 L 250 220" fill="none" stroke="#202020" stroke-width="2.5" stroke-linecap="square" stroke-linejoin="miter" marker-end="url(#arrow)"/>
<text x="185" y="198" font-family="SimHei, PingFang SC, sans-serif" font-size="25" font-weight="400" fill="#202020" text-anchor="middle" dominant-baseline="middle">1. 填写菜品信息</text>
<path d="M 250 290 L 460 290" fill="none" stroke="#202020" stroke-width="2.5" stroke-linecap="square" stroke-linejoin="miter" marker-end="url(#arrow)"/>
<text x="350" y="268" font-family="SimHei, PingFang SC, sans-serif" font-size="25" font-weight="400" fill="#202020" text-anchor="middle" dominant-baseline="middle">2. 提交新增/编辑请求</text>
<path d="M 460 360 L 670 360" fill="none" stroke="#202020" stroke-width="2.5" stroke-linecap="square" stroke-linejoin="miter" marker-end="url(#arrow)"/>
<text x="560" y="338" font-family="SimHei, PingFang SC, sans-serif" font-size="25" font-weight="400" fill="#202020" text-anchor="middle" dominant-baseline="middle">3. 校验权限和重复名称</text>
<path d="M 670 430 L 880 430" fill="none" stroke="#202020" stroke-width="2.5" stroke-linecap="square" stroke-linejoin="miter" marker-end="url(#arrow)"/>
<text x="770" y="408" font-family="SimHei, PingFang SC, sans-serif" font-size="25" font-weight="400" fill="#202020" text-anchor="middle" dominant-baseline="middle">4. 保存菜品数据</text>
<path d="M 880 500 L 1090 500" fill="none" stroke="#202020" stroke-width="2.5" stroke-linecap="square" stroke-linejoin="miter" marker-end="url(#arrow)"/>
<text x="980" y="478" font-family="SimHei, PingFang SC, sans-serif" font-size="25" font-weight="400" fill="#202020" text-anchor="middle" dominant-baseline="middle">5. 写入caipin表</text>
<path d="M 1090 570 L 880 570" fill="none" stroke="#555" stroke-width="2.5" stroke-linecap="square" stroke-linejoin="miter" stroke-dasharray="8 6" marker-end="url(#dashArrow)"/>
<text x="980" y="548" font-family="SimHei, PingFang SC, sans-serif" font-size="25" font-weight="400" fill="#202020" text-anchor="middle" dominant-baseline="middle">6. 返回执行结果</text>
<path d="M 670 640 L 460 640" fill="none" stroke="#555" stroke-width="2.5" stroke-linecap="square" stroke-linejoin="miter" stroke-dasharray="8 6" marker-end="url(#dashArrow)"/>
<text x="560" y="618" font-family="SimHei, PingFang SC, sans-serif" font-size="25" font-weight="400" fill="#202020" text-anchor="middle" dominant-baseline="middle">7. 返回保存结果</text>
<path d="M 460 710 L 250 710" fill="none" stroke="#555" stroke-width="2.5" stroke-linecap="square" stroke-linejoin="miter" stroke-dasharray="8 6" marker-end="url(#dashArrow)"/>
<text x="350" y="688" font-family="SimHei, PingFang SC, sans-serif" font-size="25" font-weight="400" fill="#202020" text-anchor="middle" dominant-baseline="middle">8. 刷新菜品列表</text>
</svg>