<?xml version="1.0" encoding="UTF-8"?>
<svg xmlns="http://www.w3.org/2000/svg" width="1180" height="980" viewBox="0 0 1180 980" shape-rendering="geometricPrecision" text-rendering="geometricPrecision">
  <defs>
    <marker id="arrow" viewBox="0 0 10 10" refX="9" refY="5" markerWidth="7" markerHeight="7" orient="auto-start-reverse">
      <path d="M 0 0 L 10 5 L 0 10 z" fill="#202020" />
    </marker>
    <marker id="dashArrow" viewBox="0 0 10 10" refX="9" refY="5" markerWidth="7" markerHeight="7" orient="auto-start-reverse">
      <path d="M 0 0 L 10 5 L 0 10 z" fill="#555" />
    </marker>
  </defs>
  <rect x="0" y="0" width="1180" height="980" fill="#ffffff"/>
  
    <circle cx="590" cy="416" r="20" fill="#ffffff" stroke="#202020" stroke-width="3.2"/>
    <rect x="566" y="452" width="48" height="78" rx="6" ry="6" fill="#ffffff" stroke="#202020" stroke-width="3.2"/>
    <line x1="568" y1="468" x2="532" y2="496" stroke="#202020" stroke-width="3.2" stroke-linecap="round"/>
    <line x1="612" y1="468" x2="648" y2="496" stroke="#202020" stroke-width="3.2" stroke-linecap="round"/>
    <line x1="582" y1="488" x2="582" y2="558" stroke="#202020" stroke-width="3.2" stroke-linecap="round"/>
    <line x1="598" y1="488" x2="598" y2="558" stroke="#202020" stroke-width="3.2" stroke-linecap="round"/>
    <text x="590" y="592" font-family="SimSun, Songti SC, serif" font-size="34" font-weight="400" fill="#202020" text-anchor="middle" dominant-baseline="middle">管理员/员工</text>
<line x1="560" y1="465" x2="290" y2="200" stroke="#202020" stroke-width="3.2" stroke-linecap="round"/>
<ellipse cx="180" cy="200" rx="128" ry="50" fill="#ffffff" stroke="#202020" stroke-width="3.2"/><text x="180" y="200" font-family="SimSun, Songti SC, serif" font-size="36" font-weight="400" fill="#202020" text-anchor="middle" dominant-baseline="middle">菜品管理</text>
<line x1="560" y1="465" x2="290" y2="320" stroke="#202020" stroke-width="3.2" stroke-linecap="round"/>
<ellipse cx="180" cy="320" rx="128" ry="50" fill="#ffffff" stroke="#202020" stroke-width="3.2"/><text x="180" y="320" font-family="SimSun, Songti SC, serif" font-size="36" font-weight="400" fill="#202020" text-anchor="middle" dominant-baseline="middle">订单管理</text>
<line x1="560" y1="465" x2="290" y2="440" stroke="#202020" stroke-width="3.2" stroke-linecap="round"/>
<ellipse cx="180" cy="440" rx="128" ry="50" fill="#ffffff" stroke="#202020" stroke-width="3.2"/><text x="180" y="440" font-family="SimSun, Songti SC, serif" font-size="36" font-weight="400" fill="#202020" text-anchor="middle" dominant-baseline="middle">用户管理</text>
<line x1="560" y1="465" x2="290" y2="560" stroke="#202020" stroke-width="3.2" stroke-linecap="round"/>
<ellipse cx="180" cy="560" rx="128" ry="50" fill="#ffffff" stroke="#202020" stroke-width="3.2"/><text x="180" y="560" font-family="SimSun, Songti SC, serif" font-size="36" font-weight="400" fill="#202020" text-anchor="middle" dominant-baseline="middle">员工管理</text>
<line x1="560" y1="465" x2="290" y2="680" stroke="#202020" stroke-width="3.2" stroke-linecap="round"/>
<ellipse cx="180" cy="680" rx="128" ry="50" fill="#ffffff" stroke="#202020" stroke-width="3.2"/><text x="180" y="680" font-family="SimSun, Songti SC, serif" font-size="36" font-weight="400" fill="#202020" text-anchor="middle" dominant-baseline="middle">供应商管理</text>
<line x1="560" y1="465" x2="290" y2="800" stroke="#202020" stroke-width="3.2" stroke-linecap="round"/>
<ellipse cx="180" cy="800" rx="128" ry="50" fill="#ffffff" stroke="#202020" stroke-width="3.2"/><text x="180" y="800" font-family="SimSun, Songti SC, serif" font-size="36" font-weight="400" fill="#202020" text-anchor="middle" dominant-baseline="middle">评价管理</text>
<line x1="620" y1="465" x2="890" y2="200" stroke="#202020" stroke-width="3.2" stroke-linecap="round"/>
<ellipse cx="1000" cy="200" rx="128" ry="50" fill="#ffffff" stroke="#202020" stroke-width="3.2"/><text x="1000" y="200" font-family="SimSun, Songti SC, serif" font-size="36" font-weight="400" fill="#202020" text-anchor="middle" dominant-baseline="middle">收藏管理</text>
<line x1="620" y1="465" x2="890" y2="320" stroke="#202020" stroke-width="3.2" stroke-linecap="round"/>
<ellipse cx="1000" cy="320" rx="128" ry="50" fill="#ffffff" stroke="#202020" stroke-width="3.2"/><text x="1000" y="320" font-family="SimSun, Songti SC, serif" font-size="36" font-weight="400" fill="#202020" text-anchor="middle" dominant-baseline="middle">论坛管理</text>
<line x1="620" y1="465" x2="890" y2="440" stroke="#202020" stroke-width="3.2" stroke-linecap="round"/>
<ellipse cx="1000" cy="440" rx="128" ry="50" fill="#ffffff" stroke="#202020" stroke-width="3.2"/><text x="1000" y="440" font-family="SimSun, Songti SC, serif" font-size="36" font-weight="400" fill="#202020" text-anchor="middle" dominant-baseline="middle">公告管理</text>
<line x1="620" y1="465" x2="890" y2="560" stroke="#202020" stroke-width="3.2" stroke-linecap="round"/>
<ellipse cx="1000" cy="560" rx="128" ry="50" fill="#ffffff" stroke="#202020" stroke-width="3.2"/><text x="1000" y="560" font-family="SimSun, Songti SC, serif" font-size="36" font-weight="400" fill="#202020" text-anchor="middle" dominant-baseline="middle">字典管理</text>
<line x1="620" y1="465" x2="890" y2="680" stroke="#202020" stroke-width="3.2" stroke-linecap="round"/>
<ellipse cx="1000" cy="680" rx="128" ry="50" fill="#ffffff" stroke="#202020" stroke-width="3.2"/><text x="1000" y="680" font-family="SimSun, Songti SC, serif" font-size="36" font-weight="400" fill="#202020" text-anchor="middle" dominant-baseline="middle">轮播图管理</text>
<line x1="620" y1="465" x2="890" y2="800" stroke="#202020" stroke-width="3.2" stroke-linecap="round"/>
<ellipse cx="1000" cy="800" rx="128" ry="50" fill="#ffffff" stroke="#202020" stroke-width="3.2"/><text x="1000" y="800" font-family="SimSun, Songti SC, serif" font-size="36" font-weight="400" fill="#202020" text-anchor="middle" dominant-baseline="middle">系统设置</text>
</svg>