<?xml version="1.0" encoding="UTF-8"?>
<svg xmlns="http://www.w3.org/2000/svg" width="1600" height="1360" viewBox="0 0 1600 1360" shape-rendering="geometricPrecision" text-rendering="geometricPrecision">
  <defs>
    <marker id="arrow" viewBox="0 0 10 10" refX="9" refY="5" markerWidth="7" markerHeight="7" orient="auto-start-reverse">
      <path d="M 0 0 L 10 5 L 0 10 z" fill="#202020" />
    </marker>
    <marker id="dashArrow" viewBox="0 0 10 10" refX="9" refY="5" markerWidth="7" markerHeight="7" orient="auto-start-reverse">
      <path d="M 0 0 L 10 5 L 0 10 z" fill="#555" />
    </marker>
  </defs>
  <rect x="0" y="0" width="1600" height="1360" fill="#ffffff"/>
  <rect x="680" y="90" width="280" height="90" rx="16" ry="16" fill="#fff" stroke="#202020" stroke-width="3"/>
<text x="820" y="135" font-family="SimSun, Songti SC, serif" font-size="34" font-weight="400" fill="#202020" text-anchor="middle" dominant-baseline="middle">开始</text>
<rect x="600" y="260" width="440" height="90" rx="0" ry="0" fill="#fff" stroke="#202020" stroke-width="3"/>
<text x="820" y="305" font-family="SimSun, Songti SC, serif" font-size="32" font-weight="400" fill="#202020" text-anchor="middle" dominant-baseline="middle">管理员后台首页</text>
<rect x="540" y="450" width="560" height="120" rx="0" ry="0" fill="#fff" stroke="#202020" stroke-width="3"/>
<text x="820" y="510" font-family="SimSun, Songti SC, serif" font-size="30" font-weight="400" fill="#202020" text-anchor="middle" dominant-baseline="middle">选择管理功能模块
执行管理操作</text>
<path d="M 820 630 L 1050 720 L 820 820 L 590 720 Z" fill="#fff" stroke="#202020" stroke-width="3"/>
<text x="820" y="720" font-family="SimSun, Songti SC, serif" font-size="26" font-weight="400" fill="#202020" text-anchor="middle" dominant-baseline="middle">操作数据
是否合法</text>
<rect x="1150" y="660" width="320" height="110" rx="0" ry="0" fill="#fff" stroke="#202020" stroke-width="3"/>
<text x="1310" y="715" font-family="SimSun, Songti SC, serif" font-size="24" font-weight="400" fill="#202020" text-anchor="middle" dominant-baseline="middle">提示操作失败
返回管理页面</text>
<ellipse cx="200" cy="670" rx="90" ry="18" fill="#fff" stroke="#202020" stroke-width="3"/>
<path d="M 110 670 L 110 770 A 90 18 0 0 0 290 770 L 290 670" fill="#fff" stroke="#202020" stroke-width="3"/>
<text x="200" y="720" font-family="SimSun, Songti SC, serif" font-size="26" font-weight="400" fill="#202020" text-anchor="middle" dominant-baseline="middle">系统数据库</text>
<rect x="620" y="880" width="400" height="90" rx="0" ry="0" fill="#fff" stroke="#202020" stroke-width="3"/>
<text x="820" y="925" font-family="SimSun, Songti SC, serif" font-size="29" font-weight="400" fill="#202020" text-anchor="middle" dominant-baseline="middle">操作成功
更新数据记录</text>
<rect x="610" y="1060" width="420" height="90" rx="0" ry="0" fill="#fff" stroke="#202020" stroke-width="3"/>
<text x="820" y="1105" font-family="SimSun, Songti SC, serif" font-size="30" font-weight="400" fill="#202020" text-anchor="middle" dominant-baseline="middle">返回管理列表</text>
<rect x="660" y="1210" width="320" height="90" rx="16" ry="16" fill="#fff" stroke="#202020" stroke-width="3"/>
<text x="820" y="1255" font-family="SimSun, Songti SC, serif" font-size="34" font-weight="400" fill="#202020" text-anchor="middle" dominant-baseline="middle">流程结束</text>
<path d="M 820 180 L 820 260" fill="none" stroke="#202020" stroke-width="3" stroke-linecap="square" stroke-linejoin="miter" marker-end="url(#arrow)"/>
<path d="M 820 350 L 820 450" fill="none" stroke="#202020" stroke-width="3" stroke-linecap="square" stroke-linejoin="miter" marker-end="url(#arrow)"/>
<path d="M 820 570 L 820 630" fill="none" stroke="#202020" stroke-width="3" stroke-linecap="square" stroke-linejoin="miter" marker-end="url(#arrow)"/>
<path d="M 820 820 L 820 880" fill="none" stroke="#202020" stroke-width="3" stroke-linecap="square" stroke-linejoin="miter" marker-end="url(#arrow)"/>
<path d="M 820 970 L 820 1060" fill="none" stroke="#202020" stroke-width="3" stroke-linecap="square" stroke-linejoin="miter" marker-end="url(#arrow)"/>
<path d="M 820 1150 L 820 1210" fill="none" stroke="#202020" stroke-width="3" stroke-linecap="square" stroke-linejoin="miter" marker-end="url(#arrow)"/>
<path d="M 1050 720 L 1150 720" fill="none" stroke="#202020" stroke-width="3" stroke-linecap="square" stroke-linejoin="miter" marker-end="url(#arrow)"/>
<text x="1100" y="684" font-family="SimSun, Songti SC, serif" font-size="26" font-weight="400" fill="#202020" text-anchor="middle" dominant-baseline="middle">否</text>
<path d="M 1310 660 L 1310 310 L 1040 310" fill="none" stroke="#202020" stroke-width="3" stroke-linecap="square" stroke-linejoin="miter" marker-end="url(#arrow)"/>
<path d="M 590 720 L 290 720" fill="none" stroke="#202020" stroke-width="3" stroke-linecap="square" stroke-linejoin="miter" marker-end="url(#arrow)"/>
<path d="M 200 790 L 200 930 L 620 930" fill="none" stroke="#202020" stroke-width="3" stroke-linecap="square" stroke-linejoin="miter" marker-end="url(#arrow)"/>
<text x="860" y="842" font-family="SimSun, Songti SC, serif" font-size="26" font-weight="400" fill="#202020" text-anchor="start" dominant-baseline="middle">是</text>
</svg>