<?xml version="1.0" encoding="UTF-8"?>
<svg xmlns="http://www.w3.org/2000/svg" width="1500" height="900" viewBox="0 0 1500 900" shape-rendering="geometricPrecision" text-rendering="geometricPrecision">
  <defs>
    <marker id="arrow" viewBox="0 0 10 10" refX="9" refY="5" markerWidth="7" markerHeight="7" orient="auto-start-reverse">
      <path d="M 0 0 L 10 5 L 0 10 z" fill="#202020" />
    </marker>
    <marker id="dashArrow" viewBox="0 0 10 10" refX="9" refY="5" markerWidth="7" markerHeight="7" orient="auto-start-reverse">
      <path d="M 0 0 L 10 5 L 0 10 z" fill="#555" />
    </marker>
  </defs>
  <rect x="0" y="0" width="1500" height="900" fill="#ffffff"/>
  <rect x="80" y="120" width="180" height="60" rx="0" ry="0" fill="#fff" stroke="#202020" stroke-width="2.8"/>
<text x="170" y="150" font-family="SimHei, PingFang SC, sans-serif" font-size="22" font-weight="400" fill="#202020" text-anchor="middle" dominant-baseline="middle">管理员</text>
<rect x="680" y="120" width="180" height="60" rx="0" ry="0" fill="#fff" stroke="#202020" stroke-width="2.8"/>
<text x="770" y="150" font-family="SimHei, PingFang SC, sans-serif" font-size="22" font-weight="400" fill="#202020" text-anchor="middle" dominant-baseline="middle">用户</text>
<rect x="380" y="430" width="200" height="60" rx="0" ry="0" fill="#fff" stroke="#202020" stroke-width="2.8"/>
<text x="480" y="460" font-family="SimHei, PingFang SC, sans-serif" font-size="22" font-weight="400" fill="#202020" text-anchor="middle" dominant-baseline="middle">房屋信息</text>
<rect x="1080" y="120" width="180" height="60" rx="0" ry="0" fill="#fff" stroke="#202020" stroke-width="2.8"/>
<text x="1170" y="150" font-family="SimHei, PingFang SC, sans-serif" font-size="22" font-weight="400" fill="#202020" text-anchor="middle" dominant-baseline="middle">订单</text>
<rect x="80" y="720" width="180" height="60" rx="0" ry="0" fill="#fff" stroke="#202020" stroke-width="2.8"/>
<text x="170" y="750" font-family="SimHei, PingFang SC, sans-serif" font-size="22" font-weight="400" fill="#202020" text-anchor="middle" dominant-baseline="middle">留言</text>
<rect x="680" y="720" width="180" height="60" rx="0" ry="0" fill="#fff" stroke="#202020" stroke-width="2.8"/>
<text x="770" y="750" font-family="SimHei, PingFang SC, sans-serif" font-size="22" font-weight="400" fill="#202020" text-anchor="middle" dominant-baseline="middle">公告</text>
<rect x="1080" y="720" width="180" height="60" rx="0" ry="0" fill="#fff" stroke="#202020" stroke-width="2.8"/>
<text x="1170" y="750" font-family="SimHei, PingFang SC, sans-serif" font-size="22" font-weight="400" fill="#202020" text-anchor="middle" dominant-baseline="middle">分类</text>
<path d="M 170 120 L 70 80" fill="none" stroke="#202020" stroke-width="2" stroke-linecap="square" stroke-linejoin="miter"/>
<ellipse cx="30" cy="60" rx="80" ry="30" fill="#fff" stroke="#202020" stroke-width="3"/>
<text x="30" y="60" font-family="SimSun, Songti SC, serif" font-size="16" font-weight="400" fill="#202020" text-anchor="middle" dominant-baseline="middle">编号</text>
<path d="M 170 120 L 190 70" fill="none" stroke="#202020" stroke-width="2" stroke-linecap="square" stroke-linejoin="miter"/>
<ellipse cx="200" cy="40" rx="80" ry="30" fill="#fff" stroke="#202020" stroke-width="3"/>
<text x="200" y="40" font-family="SimSun, Songti SC, serif" font-size="16" font-weight="400" fill="#202020" text-anchor="middle" dominant-baseline="middle">账号</text>
<path d="M 170 120 L 300 90" fill="none" stroke="#202020" stroke-width="2" stroke-linecap="square" stroke-linejoin="miter"/>
<ellipse cx="350" cy="70" rx="80" ry="30" fill="#fff" stroke="#202020" stroke-width="3"/>
<text x="350" y="70" font-family="SimSun, Songti SC, serif" font-size="16" font-weight="400" fill="#202020" text-anchor="middle" dominant-baseline="middle">密码</text>
<path d="M 170 180 L 110 210" fill="none" stroke="#202020" stroke-width="2" stroke-linecap="square" stroke-linejoin="miter"/>
<ellipse cx="80" cy="240" rx="80" ry="30" fill="#fff" stroke="#202020" stroke-width="3"/>
<text x="80" y="240" font-family="SimSun, Songti SC, serif" font-size="16" font-weight="400" fill="#202020" text-anchor="middle" dominant-baseline="middle">姓名</text>
<path d="M 170 180 L 230 200" fill="none" stroke="#202020" stroke-width="2" stroke-linecap="square" stroke-linejoin="miter"/>
<ellipse cx="260" cy="230" rx="80" ry="30" fill="#fff" stroke="#202020" stroke-width="3"/>
<text x="260" y="230" font-family="SimSun, Songti SC, serif" font-size="16" font-weight="400" fill="#202020" text-anchor="middle" dominant-baseline="middle">电话</text>
<path d="M 770 120 L 670 80" fill="none" stroke="#202020" stroke-width="2" stroke-linecap="square" stroke-linejoin="miter"/>
<ellipse cx="630" cy="60" rx="80" ry="30" fill="#fff" stroke="#202020" stroke-width="3"/>
<text x="630" y="60" font-family="SimSun, Songti SC, serif" font-size="16" font-weight="400" fill="#202020" text-anchor="middle" dominant-baseline="middle">编号</text>
<path d="M 770 120 L 800 70" fill="none" stroke="#202020" stroke-width="2" stroke-linecap="square" stroke-linejoin="miter"/>
<ellipse cx="810" cy="40" rx="80" ry="30" fill="#fff" stroke="#202020" stroke-width="3"/>
<text x="810" y="40" font-family="SimSun, Songti SC, serif" font-size="16" font-weight="400" fill="#202020" text-anchor="middle" dominant-baseline="middle">账号</text>
<path d="M 770 120 L 930 80" fill="none" stroke="#202020" stroke-width="2" stroke-linecap="square" stroke-linejoin="miter"/>
<ellipse cx="980" cy="60" rx="80" ry="30" fill="#fff" stroke="#202020" stroke-width="3"/>
<text x="980" y="60" font-family="SimSun, Songti SC, serif" font-size="16" font-weight="400" fill="#202020" text-anchor="middle" dominant-baseline="middle">密码</text>
<path d="M 770 180 L 680 210" fill="none" stroke="#202020" stroke-width="2" stroke-linecap="square" stroke-linejoin="miter"/>
<ellipse cx="650" cy="240" rx="80" ry="30" fill="#fff" stroke="#202020" stroke-width="3"/>
<text x="650" y="240" font-family="SimSun, Songti SC, serif" font-size="16" font-weight="400" fill="#202020" text-anchor="middle" dominant-baseline="middle">姓名</text>
<path d="M 770 180 L 830 200" fill="none" stroke="#202020" stroke-width="2" stroke-linecap="square" stroke-linejoin="miter"/>
<ellipse cx="860" cy="230" rx="80" ry="30" fill="#fff" stroke="#202020" stroke-width="3"/>
<text x="860" y="230" font-family="SimSun, Songti SC, serif" font-size="16" font-weight="400" fill="#202020" text-anchor="middle" dominant-baseline="middle">手机号</text>
<path d="M 480 430 L 300 390" fill="none" stroke="#202020" stroke-width="2" stroke-linecap="square" stroke-linejoin="miter"/>
<ellipse cx="250" cy="370" rx="80" ry="30" fill="#fff" stroke="#202020" stroke-width="3"/>
<text x="250" y="370" font-family="SimSun, Songti SC, serif" font-size="16" font-weight="400" fill="#202020" text-anchor="middle" dominant-baseline="middle">编号</text>
<path d="M 480 430 L 440 380" fill="none" stroke="#202020" stroke-width="2" stroke-linecap="square" stroke-linejoin="miter"/>
<ellipse cx="430" cy="350" rx="80" ry="30" fill="#fff" stroke="#202020" stroke-width="3"/>
<text x="430" y="350" font-family="SimSun, Songti SC, serif" font-size="16" font-weight="400" fill="#202020" text-anchor="middle" dominant-baseline="middle">名称</text>
<path d="M 480 430 L 580 390" fill="none" stroke="#202020" stroke-width="2" stroke-linecap="square" stroke-linejoin="miter"/>
<ellipse cx="620" cy="370" rx="80" ry="30" fill="#fff" stroke="#202020" stroke-width="3"/>
<text x="620" y="370" font-family="SimSun, Songti SC, serif" font-size="16" font-weight="400" fill="#202020" text-anchor="middle" dominant-baseline="middle">户型</text>
<path d="M 480 490 L 300 540" fill="none" stroke="#202020" stroke-width="2" stroke-linecap="square" stroke-linejoin="miter"/>
<ellipse cx="250" cy="560" rx="80" ry="30" fill="#fff" stroke="#202020" stroke-width="3"/>
<text x="250" y="560" font-family="SimSun, Songti SC, serif" font-size="16" font-weight="400" fill="#202020" text-anchor="middle" dominant-baseline="middle">面积</text>
<path d="M 480 490 L 440 550" fill="none" stroke="#202020" stroke-width="2" stroke-linecap="square" stroke-linejoin="miter"/>
<ellipse cx="430" cy="580" rx="80" ry="30" fill="#fff" stroke="#202020" stroke-width="3"/>
<text x="430" y="580" font-family="SimSun, Songti SC, serif" font-size="16" font-weight="400" fill="#202020" text-anchor="middle" dominant-baseline="middle">价格</text>
<path d="M 480 490 L 590 530" fill="none" stroke="#202020" stroke-width="2" stroke-linecap="square" stroke-linejoin="miter"/>
<ellipse cx="620" cy="560" rx="80" ry="30" fill="#fff" stroke="#202020" stroke-width="3"/>
<text x="620" y="560" font-family="SimSun, Songti SC, serif" font-size="16" font-weight="400" fill="#202020" text-anchor="middle" dominant-baseline="middle">状态</text>
<path d="M 1170 120 L 1070 80" fill="none" stroke="#202020" stroke-width="2" stroke-linecap="square" stroke-linejoin="miter"/>
<ellipse cx="1030" cy="60" rx="80" ry="30" fill="#fff" stroke="#202020" stroke-width="3"/>
<text x="1030" y="60" font-family="SimSun, Songti SC, serif" font-size="16" font-weight="400" fill="#202020" text-anchor="middle" dominant-baseline="middle">编号</text>
<path d="M 1170 120 L 1200 70" fill="none" stroke="#202020" stroke-width="2" stroke-linecap="square" stroke-linejoin="miter"/>
<ellipse cx="1210" cy="40" rx="80" ry="30" fill="#fff" stroke="#202020" stroke-width="3"/>
<text x="1210" y="40" font-family="SimSun, Songti SC, serif" font-size="16" font-weight="400" fill="#202020" text-anchor="middle" dominant-baseline="middle">房屋名称</text>
<path d="M 1170 120 L 1330 80" fill="none" stroke="#202020" stroke-width="2" stroke-linecap="square" stroke-linejoin="miter"/>
<ellipse cx="1380" cy="60" rx="80" ry="30" fill="#fff" stroke="#202020" stroke-width="3"/>
<text x="1380" y="60" font-family="SimSun, Songti SC, serif" font-size="16" font-weight="400" fill="#202020" text-anchor="middle" dominant-baseline="middle">用户姓名</text>
<path d="M 1170 180 L 1120 210" fill="none" stroke="#202020" stroke-width="2" stroke-linecap="square" stroke-linejoin="miter"/>
<ellipse cx="1100" cy="240" rx="80" ry="30" fill="#fff" stroke="#202020" stroke-width="3"/>
<text x="1100" y="240" font-family="SimSun, Songti SC, serif" font-size="16" font-weight="400" fill="#202020" text-anchor="middle" dominant-baseline="middle">总价</text>
<path d="M 1170 180 L 1250 200" fill="none" stroke="#202020" stroke-width="2" stroke-linecap="square" stroke-linejoin="miter"/>
<ellipse cx="1280" cy="230" rx="80" ry="30" fill="#fff" stroke="#202020" stroke-width="3"/>
<text x="1280" y="230" font-family="SimSun, Songti SC, serif" font-size="16" font-weight="400" fill="#202020" text-anchor="middle" dominant-baseline="middle">时间</text>
<path d="M 170 720 L 70 680" fill="none" stroke="#202020" stroke-width="2" stroke-linecap="square" stroke-linejoin="miter"/>
<ellipse cx="30" cy="660" rx="80" ry="30" fill="#fff" stroke="#202020" stroke-width="3"/>
<text x="30" y="660" font-family="SimSun, Songti SC, serif" font-size="16" font-weight="400" fill="#202020" text-anchor="middle" dominant-baseline="middle">编号</text>
<path d="M 170 720 L 200 680" fill="none" stroke="#202020" stroke-width="2" stroke-linecap="square" stroke-linejoin="miter"/>
<ellipse cx="210" cy="650" rx="80" ry="30" fill="#fff" stroke="#202020" stroke-width="3"/>
<text x="210" y="650" font-family="SimSun, Songti SC, serif" font-size="16" font-weight="400" fill="#202020" text-anchor="middle" dominant-baseline="middle">内容</text>
<path d="M 170 780 L 70 820" fill="none" stroke="#202020" stroke-width="2" stroke-linecap="square" stroke-linejoin="miter"/>
<ellipse cx="30" cy="840" rx="80" ry="30" fill="#fff" stroke="#202020" stroke-width="3"/>
<text x="30" y="840" font-family="SimSun, Songti SC, serif" font-size="16" font-weight="400" fill="#202020" text-anchor="middle" dominant-baseline="middle">用户</text>
<path d="M 170 780 L 200 810" fill="none" stroke="#202020" stroke-width="2" stroke-linecap="square" stroke-linejoin="miter"/>
<ellipse cx="210" cy="840" rx="80" ry="30" fill="#fff" stroke="#202020" stroke-width="3"/>
<text x="210" y="840" font-family="SimSun, Songti SC, serif" font-size="16" font-weight="400" fill="#202020" text-anchor="middle" dominant-baseline="middle">时间</text>
<path d="M 770 720 L 670 680" fill="none" stroke="#202020" stroke-width="2" stroke-linecap="square" stroke-linejoin="miter"/>
<ellipse cx="630" cy="660" rx="80" ry="30" fill="#fff" stroke="#202020" stroke-width="3"/>
<text x="630" y="660" font-family="SimSun, Songti SC, serif" font-size="16" font-weight="400" fill="#202020" text-anchor="middle" dominant-baseline="middle">编号</text>
<path d="M 770 720 L 800 680" fill="none" stroke="#202020" stroke-width="2" stroke-linecap="square" stroke-linejoin="miter"/>
<ellipse cx="810" cy="650" rx="80" ry="30" fill="#fff" stroke="#202020" stroke-width="3"/>
<text x="810" y="650" font-family="SimSun, Songti SC, serif" font-size="16" font-weight="400" fill="#202020" text-anchor="middle" dominant-baseline="middle">名称</text>
<path d="M 770 780 L 680 810" fill="none" stroke="#202020" stroke-width="2" stroke-linecap="square" stroke-linejoin="miter"/>
<ellipse cx="650" cy="840" rx="80" ry="30" fill="#fff" stroke="#202020" stroke-width="3"/>
<text x="650" y="840" font-family="SimSun, Songti SC, serif" font-size="16" font-weight="400" fill="#202020" text-anchor="middle" dominant-baseline="middle">内容</text>
<path d="M 770 780 L 820 810" fill="none" stroke="#202020" stroke-width="2" stroke-linecap="square" stroke-linejoin="miter"/>
<ellipse cx="840" cy="840" rx="80" ry="30" fill="#fff" stroke="#202020" stroke-width="3"/>
<text x="840" y="840" font-family="SimSun, Songti SC, serif" font-size="16" font-weight="400" fill="#202020" text-anchor="middle" dominant-baseline="middle">时间</text>
<path d="M 1170 720 L 1070 680" fill="none" stroke="#202020" stroke-width="2" stroke-linecap="square" stroke-linejoin="miter"/>
<ellipse cx="1030" cy="660" rx="80" ry="30" fill="#fff" stroke="#202020" stroke-width="3"/>
<text x="1030" y="660" font-family="SimSun, Songti SC, serif" font-size="16" font-weight="400" fill="#202020" text-anchor="middle" dominant-baseline="middle">编号</text>
<path d="M 1170 720 L 1200 680" fill="none" stroke="#202020" stroke-width="2" stroke-linecap="square" stroke-linejoin="miter"/>
<ellipse cx="1210" cy="650" rx="80" ry="30" fill="#fff" stroke="#202020" stroke-width="3"/>
<text x="1210" y="650" font-family="SimSun, Songti SC, serif" font-size="16" font-weight="400" fill="#202020" text-anchor="middle" dominant-baseline="middle">名称</text>
<path d="M 270 280 L 320 310 L 270 340 L 220 310 Z" fill="#fff" stroke="#202020" stroke-width="3"/>
<text x="270" y="310" font-family="SimSun, Songti SC, serif" font-size="18" font-weight="400" fill="#202020" text-anchor="middle" dominant-baseline="middle">管理</text>
<path d="M 170 180 L 270 280" fill="none" stroke="#202020" stroke-width="2.5" stroke-linecap="square" stroke-linejoin="miter"/>
<path d="M 270 340 L 480 430" fill="none" stroke="#202020" stroke-width="2.5" stroke-linecap="square" stroke-linejoin="miter"/>
<path d="M 600 270 L 650 300 L 600 330 L 550 300 Z" fill="#fff" stroke="#202020" stroke-width="3"/>
<text x="600" y="300" font-family="SimSun, Songti SC, serif" font-size="18" font-weight="400" fill="#202020" text-anchor="middle" dominant-baseline="middle">浏览</text>
<path d="M 770 180 L 600 270" fill="none" stroke="#202020" stroke-width="2.5" stroke-linecap="square" stroke-linejoin="miter"/>
<path d="M 600 330 L 480 430" fill="none" stroke="#202020" stroke-width="2.5" stroke-linecap="square" stroke-linejoin="miter"/>
<path d="M 900 150 L 950 180 L 900 210 L 850 180 Z" fill="#fff" stroke="#202020" stroke-width="3"/>
<text x="900" y="180" font-family="SimSun, Songti SC, serif" font-size="18" font-weight="400" fill="#202020" text-anchor="middle" dominant-baseline="middle">下单</text>
<path d="M 860 150 L 850 180" fill="none" stroke="#202020" stroke-width="2.5" stroke-linecap="square" stroke-linejoin="miter"/>
<path d="M 950 180 L 1080 150" fill="none" stroke="#202020" stroke-width="2.5" stroke-linecap="square" stroke-linejoin="miter"/>
<path d="M 170 480 L 220 510 L 170 540 L 120 510 Z" fill="#fff" stroke="#202020" stroke-width="3"/>
<text x="170" y="510" font-family="SimSun, Songti SC, serif" font-size="18" font-weight="400" fill="#202020" text-anchor="middle" dominant-baseline="middle">留言</text>
<path d="M 770 180 L 170 NaN" fill="none" stroke="#202020" stroke-width="2.5" stroke-linecap="square" stroke-linejoin="miter"/>
<path d="M 170 720 L 170 540" fill="none" stroke="#202020" stroke-width="2.5" stroke-linecap="square" stroke-linejoin="miter"/>
<path d="M 900 470 L 950 500 L 900 530 L 850 500 Z" fill="#fff" stroke="#202020" stroke-width="3"/>
<text x="900" y="500" font-family="SimSun, Songti SC, serif" font-size="18" font-weight="400" fill="#202020" text-anchor="middle" dominant-baseline="middle">属于</text>
<path d="M 580 460 L 850 500" fill="none" stroke="#202020" stroke-width="2.5" stroke-linecap="square" stroke-linejoin="miter"/>
<path d="M 900 530 L 1170 720" fill="none" stroke="#202020" stroke-width="2.5" stroke-linecap="square" stroke-linejoin="miter"/>
<text x="180" y="250" font-family="SimSun, Songti SC, serif" font-size="22" font-weight="400" fill="#202020" text-anchor="middle" dominant-baseline="middle">1</text>
<text x="270" y="380" font-family="SimSun, Songti SC, serif" font-size="22" font-weight="400" fill="#202020" text-anchor="middle" dominant-baseline="middle">n</text>
<text x="700" y="220" font-family="SimSun, Songti SC, serif" font-size="22" font-weight="400" fill="#202020" text-anchor="middle" dominant-baseline="middle">1</text>
<text x="530" y="370" font-family="SimSun, Songti SC, serif" font-size="22" font-weight="400" fill="#202020" text-anchor="middle" dominant-baseline="middle">n</text>
<text x="800" y="155" font-family="SimSun, Songti SC, serif" font-size="22" font-weight="400" fill="#202020" text-anchor="middle" dominant-baseline="middle">1</text>
<text x="1010" y="155" font-family="SimSun, Songti SC, serif" font-size="22" font-weight="400" fill="#202020" text-anchor="middle" dominant-baseline="middle">n</text>
</svg>