<?xml version="1.0" encoding="UTF-8"?>
<svg xmlns="http://www.w3.org/2000/svg" width="1600" height="820" viewBox="0 0 1600 820" shape-rendering="geometricPrecision" text-rendering="geometricPrecision">
  <defs>
    <marker id="arrow" viewBox="0 0 10 10" refX="9" refY="5" markerWidth="7" markerHeight="7" orient="auto-start-reverse">
      <path d="M 0 0 L 10 5 L 0 10 z" fill="#202020" />
    </marker>
    <marker id="dashArrow" viewBox="0 0 10 10" refX="9" refY="5" markerWidth="7" markerHeight="7" orient="auto-start-reverse">
      <path d="M 0 0 L 10 5 L 0 10 z" fill="#555" />
    </marker>
  </defs>
  <rect x="0" y="0" width="1600" height="820" fill="#ffffff"/>
  <rect x="40" y="40" width="1520" height="740" fill="#fff" stroke="#202020" stroke-width="3"/>
<rect x="280" y="90" width="1240" height="90" fill="#fff" stroke="#202020" stroke-width="2.6"/>
<rect x="280" y="220" width="1240" height="90" fill="#fff" stroke="#202020" stroke-width="2.6"/>
<rect x="280" y="350" width="1240" height="90" fill="#fff" stroke="#202020" stroke-width="2.6"/>
<rect x="280" y="480" width="1240" height="90" fill="#fff" stroke="#202020" stroke-width="2.6"/>
<rect x="280" y="610" width="1240" height="90" fill="#fff" stroke="#202020" stroke-width="2.6"/>
<path d="M 230 100 C 200 100, 200 100, 200 130 L 200 110 C 200 130, 190 130, 190 140 C 190 150, 200 150, 200 170 L 200 140 C 200 170, 200 170, 230 170" fill="none" stroke="#202020" stroke-width="3"/>
<text x="167" y="110" font-family="SimHei, PingFang SC, sans-serif" font-size="24" font-weight="400" fill="#202020" text-anchor="middle" dominant-baseline="middle">表</text>
<text x="167" y="137" font-family="SimHei, PingFang SC, sans-serif" font-size="24" font-weight="400" fill="#202020" text-anchor="middle" dominant-baseline="middle">现</text>
<text x="167" y="164" font-family="SimHei, PingFang SC, sans-serif" font-size="24" font-weight="400" fill="#202020" text-anchor="middle" dominant-baseline="middle">层</text>
<path d="M 230 230 C 200 230, 200 230, 200 260 L 200 240 C 200 260, 190 260, 190 270 C 190 280, 200 280, 200 300 L 200 270 C 200 300, 200 300, 230 300" fill="none" stroke="#202020" stroke-width="3"/>
<text x="167" y="240" font-family="SimHei, PingFang SC, sans-serif" font-size="24" font-weight="400" fill="#202020" text-anchor="middle" dominant-baseline="middle">控</text>
<text x="167" y="267" font-family="SimHei, PingFang SC, sans-serif" font-size="24" font-weight="400" fill="#202020" text-anchor="middle" dominant-baseline="middle">制</text>
<text x="167" y="294" font-family="SimHei, PingFang SC, sans-serif" font-size="24" font-weight="400" fill="#202020" text-anchor="middle" dominant-baseline="middle">层</text>
<path d="M 230 360 C 200 360, 200 360, 200 390 L 200 370 C 200 390, 190 390, 190 400 C 190 410, 200 410, 200 430 L 200 400 C 200 430, 200 430, 230 430" fill="none" stroke="#202020" stroke-width="3"/>
<text x="167" y="370" font-family="SimHei, PingFang SC, sans-serif" font-size="24" font-weight="400" fill="#202020" text-anchor="middle" dominant-baseline="middle">业</text>
<text x="167" y="397" font-family="SimHei, PingFang SC, sans-serif" font-size="24" font-weight="400" fill="#202020" text-anchor="middle" dominant-baseline="middle">务</text>
<text x="167" y="424" font-family="SimHei, PingFang SC, sans-serif" font-size="24" font-weight="400" fill="#202020" text-anchor="middle" dominant-baseline="middle">层</text>
<path d="M 230 490 C 200 490, 200 490, 200 520 L 200 500 C 200 520, 190 520, 190 530 C 190 540, 200 540, 200 560 L 200 530 C 200 560, 200 560, 230 560" fill="none" stroke="#202020" stroke-width="3"/>
<text x="167" y="500" font-family="SimHei, PingFang SC, sans-serif" font-size="24" font-weight="400" fill="#202020" text-anchor="middle" dominant-baseline="middle">持</text>
<text x="167" y="527" font-family="SimHei, PingFang SC, sans-serif" font-size="24" font-weight="400" fill="#202020" text-anchor="middle" dominant-baseline="middle">久</text>
<text x="167" y="554" font-family="SimHei, PingFang SC, sans-serif" font-size="24" font-weight="400" fill="#202020" text-anchor="middle" dominant-baseline="middle">层</text>
<path d="M 230 620 C 200 620, 200 620, 200 650 L 200 630 C 200 650, 190 650, 190 660 C 190 670, 200 670, 200 690 L 200 660 C 200 690, 200 690, 230 690" fill="none" stroke="#202020" stroke-width="3"/>
<text x="167" y="630" font-family="SimHei, PingFang SC, sans-serif" font-size="24" font-weight="400" fill="#202020" text-anchor="middle" dominant-baseline="middle">数</text>
<text x="167" y="657" font-family="SimHei, PingFang SC, sans-serif" font-size="24" font-weight="400" fill="#202020" text-anchor="middle" dominant-baseline="middle">据</text>
<text x="167" y="684" font-family="SimHei, PingFang SC, sans-serif" font-size="24" font-weight="400" fill="#202020" text-anchor="middle" dominant-baseline="middle">层</text>
<rect x="340" y="110" width="180" height="60" rx="16" ry="16" fill="#fff" stroke="#202020" stroke-width="2.4"/>
<text x="430" y="140" font-family="SimHei, PingFang SC, sans-serif" font-size="20" font-weight="400" fill="#202020" text-anchor="middle" dominant-baseline="middle">JSP页面</text>
<rect x="650" y="110" width="180" height="60" rx="16" ry="16" fill="#fff" stroke="#202020" stroke-width="2.4"/>
<text x="740" y="140" font-family="SimHei, PingFang SC, sans-serif" font-size="20" font-weight="400" fill="#202020" text-anchor="middle" dominant-baseline="middle">HTML/CSS</text>
<rect x="970" y="110" width="180" height="60" rx="16" ry="16" fill="#fff" stroke="#202020" stroke-width="2.4"/>
<text x="1060" y="140" font-family="SimHei, PingFang SC, sans-serif" font-size="20" font-weight="400" fill="#202020" text-anchor="middle" dominant-baseline="middle">JavaScript</text>
<rect x="1280" y="110" width="180" height="60" rx="16" ry="16" fill="#fff" stroke="#202020" stroke-width="2.4"/>
<text x="1370" y="140" font-family="SimHei, PingFang SC, sans-serif" font-size="20" font-weight="400" fill="#202020" text-anchor="middle" dominant-baseline="middle">浏览器</text>
<rect x="330" y="240" width="190" height="60" rx="16" ry="16" fill="#fff" stroke="#202020" stroke-width="2.4"/>
<text x="425" y="270" font-family="SimHei, PingFang SC, sans-serif" font-size="18" font-weight="400" fill="#202020" text-anchor="middle" dominant-baseline="middle">DispatcherServlet</text>
<rect x="650" y="240" width="190" height="60" rx="16" ry="16" fill="#fff" stroke="#202020" stroke-width="2.4"/>
<text x="745" y="270" font-family="SimHei, PingFang SC, sans-serif" font-size="18" font-weight="400" fill="#202020" text-anchor="middle" dominant-baseline="middle">Controller</text>
<rect x="960" y="240" width="190" height="60" rx="16" ry="16" fill="#fff" stroke="#202020" stroke-width="2.4"/>
<text x="1055" y="270" font-family="SimHei, PingFang SC, sans-serif" font-size="18" font-weight="400" fill="#202020" text-anchor="middle" dominant-baseline="middle">请求分发</text>
<rect x="1280" y="240" width="190" height="60" rx="16" ry="16" fill="#fff" stroke="#202020" stroke-width="2.4"/>
<text x="1375" y="270" font-family="SimHei, PingFang SC, sans-serif" font-size="18" font-weight="400" fill="#202020" text-anchor="middle" dominant-baseline="middle">视图解析</text>
<rect x="340" y="370" width="180" height="60" rx="16" ry="16" fill="#fff" stroke="#202020" stroke-width="2.4"/>
<text x="430" y="400" font-family="SimHei, PingFang SC, sans-serif" font-size="20" font-weight="400" fill="#202020" text-anchor="middle" dominant-baseline="middle">用户服务</text>
<rect x="650" y="370" width="180" height="60" rx="16" ry="16" fill="#fff" stroke="#202020" stroke-width="2.4"/>
<text x="740" y="400" font-family="SimHei, PingFang SC, sans-serif" font-size="20" font-weight="400" fill="#202020" text-anchor="middle" dominant-baseline="middle">房屋服务</text>
<rect x="970" y="370" width="180" height="60" rx="16" ry="16" fill="#fff" stroke="#202020" stroke-width="2.4"/>
<text x="1060" y="400" font-family="SimHei, PingFang SC, sans-serif" font-size="20" font-weight="400" fill="#202020" text-anchor="middle" dominant-baseline="middle">订单服务</text>
<rect x="1280" y="370" width="180" height="60" rx="16" ry="16" fill="#fff" stroke="#202020" stroke-width="2.4"/>
<text x="1370" y="400" font-family="SimHei, PingFang SC, sans-serif" font-size="20" font-weight="400" fill="#202020" text-anchor="middle" dominant-baseline="middle">公告服务</text>
<rect x="330" y="500" width="190" height="60" rx="16" ry="16" fill="#fff" stroke="#202020" stroke-width="2.4"/>
<text x="425" y="530" font-family="SimHei, PingFang SC, sans-serif" font-size="18" font-weight="400" fill="#202020" text-anchor="middle" dominant-baseline="middle">AdminMapper</text>
<rect x="650" y="500" width="190" height="60" rx="16" ry="16" fill="#fff" stroke="#202020" stroke-width="2.4"/>
<text x="745" y="530" font-family="SimHei, PingFang SC, sans-serif" font-size="18" font-weight="400" fill="#202020" text-anchor="middle" dominant-baseline="middle">MemberMapper</text>
<rect x="960" y="500" width="190" height="60" rx="16" ry="16" fill="#fff" stroke="#202020" stroke-width="2.4"/>
<text x="1055" y="530" font-family="SimHei, PingFang SC, sans-serif" font-size="18" font-weight="400" fill="#202020" text-anchor="middle" dominant-baseline="middle">FwMapper</text>
<rect x="1280" y="500" width="190" height="60" rx="16" ry="16" fill="#fff" stroke="#202020" stroke-width="2.4"/>
<text x="1375" y="530" font-family="SimHei, PingFang SC, sans-serif" font-size="18" font-weight="400" fill="#202020" text-anchor="middle" dominant-baseline="middle">DdMapper</text>
<ellipse cx="900" cy="650" rx="100" ry="18" fill="#fff" stroke="#202020" stroke-width="3"/>
<path d="M 800 650 L 800 690 A 100 18 0 0 0 1000 690 L 1000 650" fill="#fff" stroke="#202020" stroke-width="3"/>
<text x="900" y="665" font-family="SimSun, Songti SC, serif" font-size="24" font-weight="400" fill="#202020" text-anchor="middle" dominant-baseline="middle">MySQL 5.7</text>
</svg>