<?xml version="1.0" encoding="UTF-8"?>
<svg xmlns="http://www.w3.org/2000/svg" width="908" height="539" viewBox="0 0 908 539" shape-rendering="geometricPrecision" text-rendering="geometricPrecision">
  <defs>
    <marker id="arrow" viewBox="0 0 10 10" refX="9" refY="5" markerWidth="7" markerHeight="7" orient="auto-start-reverse">
      <path d="M 0 0 L 10 5 L 0 10 z" fill="#202020" />
    </marker>
    <marker id="dashArrow" viewBox="0 0 10 10" refX="9" refY="5" markerWidth="7" markerHeight="7" orient="auto-start-reverse">
      <path d="M 0 0 L 10 5 L 0 10 z" fill="#555" />
    </marker>
  </defs>
  <rect x="0" y="0" width="908" height="539" fill="#ffffff"/>
  <rect x="350" y="430" width="200" height="60" rx="0" ry="0" fill="#fff" stroke="#202020" stroke-width="2.8"/>
<text x="450" y="460" font-family="SimHei, PingFang SC, sans-serif" font-size="22" font-weight="400" fill="#202020" text-anchor="middle" dominant-baseline="middle">用户信息</text>
<ellipse cx="90" cy="370" rx="80" ry="30" fill="#fff" stroke="#202020" stroke-width="3"/>
<text x="90" y="370" font-family="SimSun, Songti SC, serif" font-size="16" font-weight="400" fill="#202020" text-anchor="middle" dominant-baseline="middle">编号</text>
<path d="M 450 430 L 90 380" fill="none" stroke="#202020" stroke-width="1.8" stroke-linecap="square" stroke-linejoin="miter"/>
<ellipse cx="130" cy="270" rx="80" ry="30" fill="#fff" stroke="#202020" stroke-width="3"/>
<text x="130" y="270" font-family="SimSun, Songti SC, serif" font-size="16" font-weight="400" fill="#202020" text-anchor="middle" dominant-baseline="middle">账号</text>
<path d="M 450 430 L 130 280" fill="none" stroke="#202020" stroke-width="1.8" stroke-linecap="square" stroke-linejoin="miter"/>
<ellipse cx="200" cy="180" rx="80" ry="30" fill="#fff" stroke="#202020" stroke-width="3"/>
<text x="200" y="180" font-family="SimSun, Songti SC, serif" font-size="16" font-weight="400" fill="#202020" text-anchor="middle" dominant-baseline="middle">密码</text>
<path d="M 450 430 L 200 200" fill="none" stroke="#202020" stroke-width="1.8" stroke-linecap="square" stroke-linejoin="miter"/>
<ellipse cx="290" cy="120" rx="80" ry="30" fill="#fff" stroke="#202020" stroke-width="3"/>
<text x="290" y="120" font-family="SimSun, Songti SC, serif" font-size="16" font-weight="400" fill="#202020" text-anchor="middle" dominant-baseline="middle">姓名</text>
<path d="M 450 430 L 290 140" fill="none" stroke="#202020" stroke-width="1.8" stroke-linecap="square" stroke-linejoin="miter"/>
<ellipse cx="400" cy="90" rx="80" ry="30" fill="#fff" stroke="#202020" stroke-width="3"/>
<text x="400" y="90" font-family="SimSun, Songti SC, serif" font-size="16" font-weight="400" fill="#202020" text-anchor="middle" dominant-baseline="middle">性别</text>
<path d="M 450 430 L 400 100" fill="none" stroke="#202020" stroke-width="1.8" stroke-linecap="square" stroke-linejoin="miter"/>
<ellipse cx="510" cy="90" rx="80" ry="30" fill="#fff" stroke="#202020" stroke-width="3"/>
<text x="510" y="90" font-family="SimSun, Songti SC, serif" font-size="16" font-weight="400" fill="#202020" text-anchor="middle" dominant-baseline="middle">身份证号</text>
<path d="M 450 430 L 510 100" fill="none" stroke="#202020" stroke-width="1.8" stroke-linecap="square" stroke-linejoin="miter"/>
<ellipse cx="610" cy="120" rx="80" ry="30" fill="#fff" stroke="#202020" stroke-width="3"/>
<text x="610" y="120" font-family="SimSun, Songti SC, serif" font-size="16" font-weight="400" fill="#202020" text-anchor="middle" dominant-baseline="middle">手机号</text>
<path d="M 450 430 L 610 140" fill="none" stroke="#202020" stroke-width="1.8" stroke-linecap="square" stroke-linejoin="miter"/>
<ellipse cx="710" cy="180" rx="80" ry="30" fill="#fff" stroke="#202020" stroke-width="3"/>
<text x="710" y="180" font-family="SimSun, Songti SC, serif" font-size="16" font-weight="400" fill="#202020" text-anchor="middle" dominant-baseline="middle">照片</text>
<path d="M 450 430 L 710 200" fill="none" stroke="#202020" stroke-width="1.8" stroke-linecap="square" stroke-linejoin="miter"/>
<ellipse cx="780" cy="270" rx="80" ry="30" fill="#fff" stroke="#202020" stroke-width="3"/>
<text x="780" y="270" font-family="SimSun, Songti SC, serif" font-size="16" font-weight="400" fill="#202020" text-anchor="middle" dominant-baseline="middle">注册时间</text>
<path d="M 450 430 L 780 280" fill="none" stroke="#202020" stroke-width="1.8" stroke-linecap="square" stroke-linejoin="miter"/>
<ellipse cx="820" cy="370" rx="80" ry="30" fill="#fff" stroke="#202020" stroke-width="3"/>
<text x="820" y="370" font-family="SimSun, Songti SC, serif" font-size="16" font-weight="400" fill="#202020" text-anchor="middle" dominant-baseline="middle">状态</text>
<path d="M 450 430 L 820 380" fill="none" stroke="#202020" stroke-width="1.8" stroke-linecap="square" stroke-linejoin="miter"/>
</svg>