<?xml version="1.0" encoding="UTF-8"?>
<svg xmlns="http://www.w3.org/2000/svg" width="641" height="399" viewBox="0 0 641 399" shape-rendering="geometricPrecision" text-rendering="geometricPrecision">
  <defs>
    <marker id="arrow" viewBox="0 0 10 10" refX="9" refY="5" markerWidth="7" markerHeight="7" orient="auto-start-reverse">
      <path d="M 0 0 L 10 5 L 0 10 z" fill="#202020" />
    </marker>
    <marker id="dashArrow" viewBox="0 0 10 10" refX="9" refY="5" markerWidth="7" markerHeight="7" orient="auto-start-reverse">
      <path d="M 0 0 L 10 5 L 0 10 z" fill="#555" />
    </marker>
  </defs>
  <rect x="0" y="0" width="641" height="399" fill="#ffffff"/>
  <rect x="220" y="290" width="200" height="60" rx="0" ry="0" fill="#fff" stroke="#202020" stroke-width="2.8"/>
<text x="320" y="320" font-family="SimHei, PingFang SC, sans-serif" font-size="22" font-weight="400" fill="#202020" text-anchor="middle" dominant-baseline="middle">留言信息</text>
<ellipse cx="110" cy="210" rx="100" ry="30" fill="#fff" stroke="#202020" stroke-width="3"/>
<text x="110" y="210" font-family="SimSun, Songti SC, serif" font-size="16" font-weight="400" fill="#202020" text-anchor="middle" dominant-baseline="middle">编号</text>
<path d="M 320 290 L 110 230" fill="none" stroke="#202020" stroke-width="1.8" stroke-linecap="square" stroke-linejoin="miter"/>
<ellipse cx="200" cy="120" rx="100" ry="30" fill="#fff" stroke="#202020" stroke-width="3"/>
<text x="200" y="120" font-family="SimSun, Songti SC, serif" font-size="16" font-weight="400" fill="#202020" text-anchor="middle" dominant-baseline="middle">内容</text>
<path d="M 320 290 L 200 130" fill="none" stroke="#202020" stroke-width="1.8" stroke-linecap="square" stroke-linejoin="miter"/>
<ellipse cx="320" cy="80" rx="100" ry="30" fill="#fff" stroke="#202020" stroke-width="3"/>
<text x="320" y="80" font-family="SimSun, Songti SC, serif" font-size="16" font-weight="400" fill="#202020" text-anchor="middle" dominant-baseline="middle">用户</text>
<path d="M 320 290 L 320 100" fill="none" stroke="#202020" stroke-width="1.8" stroke-linecap="square" stroke-linejoin="miter"/>
<ellipse cx="440" cy="120" rx="100" ry="30" fill="#fff" stroke="#202020" stroke-width="3"/>
<text x="440" y="120" font-family="SimSun, Songti SC, serif" font-size="16" font-weight="400" fill="#202020" text-anchor="middle" dominant-baseline="middle">时间</text>
<path d="M 320 290 L 440 130" fill="none" stroke="#202020" stroke-width="1.8" stroke-linecap="square" stroke-linejoin="miter"/>
<ellipse cx="530" cy="210" rx="100" ry="30" fill="#fff" stroke="#202020" stroke-width="3"/>
<text x="530" y="210" font-family="SimSun, Songti SC, serif" font-size="16" font-weight="400" fill="#202020" text-anchor="middle" dominant-baseline="middle">回复</text>
<path d="M 320 290 L 530 230" fill="none" stroke="#202020" stroke-width="1.8" stroke-linecap="square" stroke-linejoin="miter"/>
</svg>