<?xml version="1.0" encoding="UTF-8"?>
<svg xmlns="http://www.w3.org/2000/svg" width="826" height="498" viewBox="0 0 826 498" shape-rendering="geometricPrecision" text-rendering="geometricPrecision">
  <defs>
    <marker id="arrow" viewBox="0 0 10 10" refX="9" refY="5" markerWidth="7" markerHeight="7" orient="auto-start-reverse">
      <path d="M 0 0 L 10 5 L 0 10 z" fill="#202020" />
    </marker>
    <marker id="dashArrow" viewBox="0 0 10 10" refX="9" refY="5" markerWidth="7" markerHeight="7" orient="auto-start-reverse">
      <path d="M 0 0 L 10 5 L 0 10 z" fill="#555" />
    </marker>
  </defs>
  <rect x="0" y="0" width="826" height="498" fill="#ffffff"/>
  <rect x="310" y="390" width="200" height="60" rx="0" ry="0" fill="#fff" stroke="#202020" stroke-width="2.8"/>
<text x="410" y="420" font-family="SimHei, PingFang SC, sans-serif" font-size="22" font-weight="400" fill="#202020" text-anchor="middle" dominant-baseline="middle">管理员信息</text>
<ellipse cx="90" cy="340" rx="80" ry="30" fill="#fff" stroke="#202020" stroke-width="3"/>
<text x="90" y="340" font-family="SimSun, Songti SC, serif" font-size="16" font-weight="400" fill="#202020" text-anchor="middle" dominant-baseline="middle">编号</text>
<path d="M 410 390 L 90 350" fill="none" stroke="#202020" stroke-width="1.8" stroke-linecap="square" stroke-linejoin="miter"/>
<ellipse cx="130" cy="240" rx="80" ry="30" fill="#fff" stroke="#202020" stroke-width="3"/>
<text x="130" y="240" font-family="SimSun, Songti SC, serif" font-size="16" font-weight="400" fill="#202020" text-anchor="middle" dominant-baseline="middle">账号</text>
<path d="M 410 390 L 130 250" fill="none" stroke="#202020" stroke-width="1.8" stroke-linecap="square" stroke-linejoin="miter"/>
<ellipse cx="210" cy="150" rx="80" ry="30" fill="#fff" stroke="#202020" stroke-width="3"/>
<text x="210" y="150" font-family="SimSun, Songti SC, serif" font-size="16" font-weight="400" fill="#202020" text-anchor="middle" dominant-baseline="middle">密码</text>
<path d="M 410 390 L 210 170" fill="none" stroke="#202020" stroke-width="1.8" stroke-linecap="square" stroke-linejoin="miter"/>
<ellipse cx="300" cy="100" rx="80" ry="30" fill="#fff" stroke="#202020" stroke-width="3"/>
<text x="300" y="100" font-family="SimSun, Songti SC, serif" font-size="16" font-weight="400" fill="#202020" text-anchor="middle" dominant-baseline="middle">姓名</text>
<path d="M 410 390 L 300 120" fill="none" stroke="#202020" stroke-width="1.8" stroke-linecap="square" stroke-linejoin="miter"/>
<ellipse cx="410" cy="80" rx="80" ry="30" fill="#fff" stroke="#202020" stroke-width="3"/>
<text x="410" y="80" font-family="SimSun, Songti SC, serif" font-size="16" font-weight="400" fill="#202020" text-anchor="middle" dominant-baseline="middle">性别</text>
<path d="M 410 390 L 410 100" fill="none" stroke="#202020" stroke-width="1.8" stroke-linecap="square" stroke-linejoin="miter"/>
<ellipse cx="520" cy="100" rx="80" ry="30" fill="#fff" stroke="#202020" stroke-width="3"/>
<text x="520" y="100" font-family="SimSun, Songti SC, serif" font-size="16" font-weight="400" fill="#202020" text-anchor="middle" dominant-baseline="middle">年龄</text>
<path d="M 410 390 L 520 120" fill="none" stroke="#202020" stroke-width="1.8" stroke-linecap="square" stroke-linejoin="miter"/>
<ellipse cx="620" cy="150" rx="80" ry="30" fill="#fff" stroke="#202020" stroke-width="3"/>
<text x="620" y="150" font-family="SimSun, Songti SC, serif" font-size="16" font-weight="400" fill="#202020" text-anchor="middle" dominant-baseline="middle">地址</text>
<path d="M 410 390 L 620 170" fill="none" stroke="#202020" stroke-width="1.8" stroke-linecap="square" stroke-linejoin="miter"/>
<ellipse cx="690" cy="240" rx="80" ry="30" fill="#fff" stroke="#202020" stroke-width="3"/>
<text x="690" y="240" font-family="SimSun, Songti SC, serif" font-size="16" font-weight="400" fill="#202020" text-anchor="middle" dominant-baseline="middle">电话</text>
<path d="M 410 390 L 690 250" fill="none" stroke="#202020" stroke-width="1.8" stroke-linecap="square" stroke-linejoin="miter"/>
<ellipse cx="740" cy="340" rx="80" ry="30" fill="#fff" stroke="#202020" stroke-width="3"/>
<text x="740" y="340" font-family="SimSun, Songti SC, serif" font-size="16" font-weight="400" fill="#202020" text-anchor="middle" dominant-baseline="middle">添加时间</text>
<path d="M 410 390 L 740 350" fill="none" stroke="#202020" stroke-width="1.8" stroke-linecap="square" stroke-linejoin="miter"/>
</svg>