<?xml version="1.0" encoding="UTF-8"?>
<svg xmlns="http://www.w3.org/2000/svg" width="2390" height="1414" viewBox="0 0 2390 1414" shape-rendering="geometricPrecision" text-rendering="geometricPrecision">
  <defs>
    <marker id="arrow" viewBox="0 0 10 10" refX="9" refY="5" markerWidth="7" markerHeight="7" orient="auto-start-reverse">
      <path d="M 0 0 L 10 5 L 0 10 z" fill="#202020" />
    </marker>
    <marker id="dashArrow" viewBox="0 0 10 10" refX="9" refY="5" markerWidth="7" markerHeight="7" orient="auto-start-reverse">
      <path d="M 0 0 L 10 5 L 0 10 z" fill="#555" />
    </marker>
  </defs>
  <rect x="0" y="0" width="2390" height="1414" fill="#ffffff"/>
  <rect x="1090" y="1140" width="220" height="60" rx="0" ry="0" fill="#fff" stroke="#202020" stroke-width="2.8"/>
<text x="1200" y="1170" font-family="SimHei, PingFang SC, sans-serif" font-size="24" font-weight="400" fill="#202020" text-anchor="middle" dominant-baseline="middle">用户</text>
<rect x="1090" y="210" width="220" height="60" rx="0" ry="0" fill="#fff" stroke="#202020" stroke-width="2.8"/>
<text x="1200" y="240" font-family="SimHei, PingFang SC, sans-serif" font-size="24" font-weight="400" fill="#202020" text-anchor="middle" dominant-baseline="middle">兴趣点</text>
<rect x="160" y="1140" width="220" height="60" rx="0" ry="0" fill="#fff" stroke="#202020" stroke-width="2.8"/>
<text x="270" y="1170" font-family="SimHei, PingFang SC, sans-serif" font-size="24" font-weight="400" fill="#202020" text-anchor="middle" dominant-baseline="middle">公告</text>
<rect x="2020" y="1140" width="220" height="60" rx="0" ry="0" fill="#fff" stroke="#202020" stroke-width="2.8"/>
<text x="2130" y="1170" font-family="SimHei, PingFang SC, sans-serif" font-size="24" font-weight="400" fill="#202020" text-anchor="middle" dominant-baseline="middle">导航日志</text>
<path d="M 1200 680 L 1250 710 L 1200 740 L 1140 710 Z" fill="#fff" stroke="#202020" stroke-width="3"/>
<text x="1200" y="710" font-family="SimSun, Songti SC, serif" font-size="20" font-weight="400" fill="#202020" text-anchor="middle" dominant-baseline="middle">创建</text>
<path d="M 1200 1140 L 1200 740" fill="none" stroke="#202020" stroke-width="2.5" stroke-linecap="square" stroke-linejoin="miter"/>
<path d="M 1200 680 L 1200 280" fill="none" stroke="#202020" stroke-width="2.5" stroke-linecap="square" stroke-linejoin="miter"/>
<text x="1177" y="1079" font-family="SimSun, Songti SC, serif" font-size="22" font-weight="400" fill="#202020" text-anchor="middle" dominant-baseline="middle">1</text>
<text x="1177" y="335" font-family="SimSun, Songti SC, serif" font-size="22" font-weight="400" fill="#202020" text-anchor="middle" dominant-baseline="middle">n</text>
<path d="M 730 1140 L 780 1170 L 730 1200 L 680 1170 Z" fill="#fff" stroke="#202020" stroke-width="3"/>
<text x="730" y="1170" font-family="SimSun, Songti SC, serif" font-size="20" font-weight="400" fill="#202020" text-anchor="middle" dominant-baseline="middle">发布</text>
<path d="M 1090 1170 L 780 1170" fill="none" stroke="#202020" stroke-width="2.5" stroke-linecap="square" stroke-linejoin="miter"/>
<path d="M 680 1170 L 380 1170" fill="none" stroke="#202020" stroke-width="2.5" stroke-linecap="square" stroke-linejoin="miter"/>
<text x="1105" y="1187" font-family="SimSun, Songti SC, serif" font-size="22" font-weight="400" fill="#202020" text-anchor="middle" dominant-baseline="middle">1</text>
<text x="355" y="1187" font-family="SimSun, Songti SC, serif" font-size="22" font-weight="400" fill="#202020" text-anchor="middle" dominant-baseline="middle">n</text>
<path d="M 1660 1140 L 1710 1170 L 1660 1200 L 1610 1170 Z" fill="#fff" stroke="#202020" stroke-width="3"/>
<text x="1660" y="1170" font-family="SimSun, Songti SC, serif" font-size="20" font-weight="400" fill="#202020" text-anchor="middle" dominant-baseline="middle">产生</text>
<path d="M 1310 1170 L 1610 1170" fill="none" stroke="#202020" stroke-width="2.5" stroke-linecap="square" stroke-linejoin="miter"/>
<path d="M 1710 1170 L 2020 1170" fill="none" stroke="#202020" stroke-width="2.5" stroke-linecap="square" stroke-linejoin="miter"/>
<text x="1285" y="1151" font-family="SimSun, Songti SC, serif" font-size="22" font-weight="400" fill="#202020" text-anchor="middle" dominant-baseline="middle">1</text>
<text x="2035" y="1151" font-family="SimSun, Songti SC, serif" font-size="22" font-weight="400" fill="#202020" text-anchor="middle" dominant-baseline="middle">n</text>
<path d="M 1200 1200 L 1300 1220" fill="none" stroke="#202020" stroke-width="2" stroke-linecap="square" stroke-linejoin="miter"/>
<ellipse cx="1340" cy="1240" rx="70" ry="30" fill="#fff" stroke="#202020" stroke-width="3"/>
<text x="1340" y="1240" font-family="SimSun, Songti SC, serif" font-size="15" font-weight="400" fill="#202020" text-anchor="middle" dominant-baseline="middle">用户ID</text>
<path d="M 1200 1200 L 1260 1270" fill="none" stroke="#202020" stroke-width="2" stroke-linecap="square" stroke-linejoin="miter"/>
<ellipse cx="1280" cy="1290" rx="70" ry="30" fill="#fff" stroke="#202020" stroke-width="3"/>
<text x="1280" y="1290" font-family="SimSun, Songti SC, serif" font-size="15" font-weight="400" fill="#202020" text-anchor="middle" dominant-baseline="middle">用户名</text>
<path d="M 1200 1200 L 1200 1330" fill="none" stroke="#202020" stroke-width="2" stroke-linecap="square" stroke-linejoin="miter"/>
<ellipse cx="1200" cy="1360" rx="70" ry="30" fill="#fff" stroke="#202020" stroke-width="3"/>
<text x="1200" y="1360" font-family="SimSun, Songti SC, serif" font-size="15" font-weight="400" fill="#202020" text-anchor="middle" dominant-baseline="middle">密码</text>
<path d="M 1200 1200 L 1130 1280" fill="none" stroke="#202020" stroke-width="2" stroke-linecap="square" stroke-linejoin="miter"/>
<ellipse cx="1110" cy="1300" rx="70" ry="30" fill="#fff" stroke="#202020" stroke-width="3"/>
<text x="1110" y="1300" font-family="SimSun, Songti SC, serif" font-size="15" font-weight="400" fill="#202020" text-anchor="middle" dominant-baseline="middle">角色</text>
<path d="M 1200 1200 L 1090 1220" fill="none" stroke="#202020" stroke-width="2" stroke-linecap="square" stroke-linejoin="miter"/>
<ellipse cx="1050" cy="1240" rx="70" ry="30" fill="#fff" stroke="#202020" stroke-width="3"/>
<text x="1050" y="1240" font-family="SimSun, Songti SC, serif" font-size="15" font-weight="400" fill="#202020" text-anchor="middle" dominant-baseline="middle">创建时间</text>
<path d="M 1200 210 L 1090 200" fill="none" stroke="#202020" stroke-width="2" stroke-linecap="square" stroke-linejoin="miter"/>
<ellipse cx="1050" cy="180" rx="70" ry="30" fill="#fff" stroke="#202020" stroke-width="3"/>
<text x="1050" y="180" font-family="SimSun, Songti SC, serif" font-size="15" font-weight="400" fill="#202020" text-anchor="middle" dominant-baseline="middle">兴趣点ID</text>
<path d="M 1200 210 L 1120 160" fill="none" stroke="#202020" stroke-width="2" stroke-linecap="square" stroke-linejoin="miter"/>
<ellipse cx="1090" cy="130" rx="70" ry="30" fill="#fff" stroke="#202020" stroke-width="3"/>
<text x="1090" y="130" font-family="SimSun, Songti SC, serif" font-size="15" font-weight="400" fill="#202020" text-anchor="middle" dominant-baseline="middle">名称</text>
<path d="M 1200 210 L 1160 60" fill="none" stroke="#202020" stroke-width="2" stroke-linecap="square" stroke-linejoin="miter"/>
<ellipse cx="1160" cy="30" rx="70" ry="30" fill="#fff" stroke="#202020" stroke-width="3"/>
<text x="1160" y="30" font-family="SimSun, Songti SC, serif" font-size="15" font-weight="400" fill="#202020" text-anchor="middle" dominant-baseline="middle">分类</text>
<path d="M 1200 210 L 1230 100" fill="none" stroke="#202020" stroke-width="2" stroke-linecap="square" stroke-linejoin="miter"/>
<ellipse cx="1230" cy="70" rx="70" ry="30" fill="#fff" stroke="#202020" stroke-width="3"/>
<text x="1230" y="70" font-family="SimSun, Songti SC, serif" font-size="15" font-weight="400" fill="#202020" text-anchor="middle" dominant-baseline="middle">坐标</text>
<path d="M 1200 210 L 1280 150" fill="none" stroke="#202020" stroke-width="2" stroke-linecap="square" stroke-linejoin="miter"/>
<ellipse cx="1300" cy="130" rx="70" ry="30" fill="#fff" stroke="#202020" stroke-width="3"/>
<text x="1300" y="130" font-family="SimSun, Songti SC, serif" font-size="15" font-weight="400" fill="#202020" text-anchor="middle" dominant-baseline="middle">描述</text>
<path d="M 1200 210 L 1300 200" fill="none" stroke="#202020" stroke-width="2" stroke-linecap="square" stroke-linejoin="miter"/>
<ellipse cx="1340" cy="180" rx="70" ry="30" fill="#fff" stroke="#202020" stroke-width="3"/>
<text x="1340" y="180" font-family="SimSun, Songti SC, serif" font-size="15" font-weight="400" fill="#202020" text-anchor="middle" dominant-baseline="middle">创建者ID</text>
<path d="M 270 1200 L 260 1330" fill="none" stroke="#202020" stroke-width="2" stroke-linecap="square" stroke-linejoin="miter"/>
<ellipse cx="260" cy="1360" rx="70" ry="30" fill="#fff" stroke="#202020" stroke-width="3"/>
<text x="260" y="1360" font-family="SimSun, Songti SC, serif" font-size="15" font-weight="400" fill="#202020" text-anchor="middle" dominant-baseline="middle">公告ID</text>
<path d="M 270 1200 L 190 1270" fill="none" stroke="#202020" stroke-width="2" stroke-linecap="square" stroke-linejoin="miter"/>
<ellipse cx="180" cy="1300" rx="70" ry="30" fill="#fff" stroke="#202020" stroke-width="3"/>
<text x="180" y="1300" font-family="SimSun, Songti SC, serif" font-size="15" font-weight="400" fill="#202020" text-anchor="middle" dominant-baseline="middle">标题</text>
<path d="M 270 1200 L 160 1220" fill="none" stroke="#202020" stroke-width="2" stroke-linecap="square" stroke-linejoin="miter"/>
<ellipse cx="120" cy="1240" rx="70" ry="30" fill="#fff" stroke="#202020" stroke-width="3"/>
<text x="120" y="1240" font-family="SimSun, Songti SC, serif" font-size="15" font-weight="400" fill="#202020" text-anchor="middle" dominant-baseline="middle">内容</text>
<path d="M 160 1170 L 150 1160" fill="none" stroke="#202020" stroke-width="2" stroke-linecap="square" stroke-linejoin="miter"/>
<ellipse cx="80" cy="1150" rx="70" ry="30" fill="#fff" stroke="#202020" stroke-width="3"/>
<text x="80" y="1150" font-family="SimSun, Songti SC, serif" font-size="15" font-weight="400" fill="#202020" text-anchor="middle" dominant-baseline="middle">发布时间</text>
<path d="M 270 1140 L 160 1090" fill="none" stroke="#202020" stroke-width="2" stroke-linecap="square" stroke-linejoin="miter"/>
<ellipse cx="130" cy="1070" rx="70" ry="30" fill="#fff" stroke="#202020" stroke-width="3"/>
<text x="130" y="1070" font-family="SimSun, Songti SC, serif" font-size="15" font-weight="400" fill="#202020" text-anchor="middle" dominant-baseline="middle">发布者ID</text>
<path d="M 2130 1140 L 2230 1090" fill="none" stroke="#202020" stroke-width="2" stroke-linecap="square" stroke-linejoin="miter"/>
<ellipse cx="2260" cy="1070" rx="70" ry="30" fill="#fff" stroke="#202020" stroke-width="3"/>
<text x="2260" y="1070" font-family="SimSun, Songti SC, serif" font-size="15" font-weight="400" fill="#202020" text-anchor="middle" dominant-baseline="middle">日志ID</text>
<path d="M 2240 1170 L 2250 1150" fill="none" stroke="#202020" stroke-width="2" stroke-linecap="square" stroke-linejoin="miter"/>
<ellipse cx="2310" cy="1140" rx="70" ry="30" fill="#fff" stroke="#202020" stroke-width="3"/>
<text x="2310" y="1140" font-family="SimSun, Songti SC, serif" font-size="15" font-weight="400" fill="#202020" text-anchor="middle" dominant-baseline="middle">用户ID</text>
<path d="M 2130 1200 L 2230 1210" fill="none" stroke="#202020" stroke-width="2" stroke-linecap="square" stroke-linejoin="miter"/>
<ellipse cx="2290" cy="1220" rx="70" ry="30" fill="#fff" stroke="#202020" stroke-width="3"/>
<text x="2290" y="1220" font-family="SimSun, Songti SC, serif" font-size="15" font-weight="400" fill="#202020" text-anchor="middle" dominant-baseline="middle">起点</text>
<path d="M 2130 1200 L 2220 1230" fill="none" stroke="#202020" stroke-width="2" stroke-linecap="square" stroke-linejoin="miter"/>
<ellipse cx="2250" cy="1260" rx="70" ry="30" fill="#fff" stroke="#202020" stroke-width="3"/>
<text x="2250" y="1260" font-family="SimSun, Songti SC, serif" font-size="15" font-weight="400" fill="#202020" text-anchor="middle" dominant-baseline="middle">终点</text>
<path d="M 2130 1200 L 2180 1280" fill="none" stroke="#202020" stroke-width="2" stroke-linecap="square" stroke-linejoin="miter"/>
<ellipse cx="2200" cy="1310" rx="70" ry="30" fill="#fff" stroke="#202020" stroke-width="3"/>
<text x="2200" y="1310" font-family="SimSun, Songti SC, serif" font-size="15" font-weight="400" fill="#202020" text-anchor="middle" dominant-baseline="middle">距离</text>
<path d="M 2130 1200 L 2130 1340" fill="none" stroke="#202020" stroke-width="2" stroke-linecap="square" stroke-linejoin="miter"/>
<ellipse cx="2130" cy="1370" rx="70" ry="30" fill="#fff" stroke="#202020" stroke-width="3"/>
<text x="2130" y="1370" font-family="SimSun, Songti SC, serif" font-size="15" font-weight="400" fill="#202020" text-anchor="middle" dominant-baseline="middle">时间</text>
</svg>