<?xml version="1.0" encoding="UTF-8"?>
<svg xmlns="http://www.w3.org/2000/svg" width="1180" height="980" viewBox="0 0 1180 980" shape-rendering="geometricPrecision" text-rendering="geometricPrecision">
  <defs>
    <marker id="arrow" viewBox="0 0 10 10" refX="9" refY="5" markerWidth="7" markerHeight="7" orient="auto-start-reverse">
      <path d="M 0 0 L 10 5 L 0 10 z" fill="#202020" />
    </marker>
    <marker id="dashArrow" viewBox="0 0 10 10" refX="9" refY="5" markerWidth="7" markerHeight="7" orient="auto-start-reverse">
      <path d="M 0 0 L 10 5 L 0 10 z" fill="#555" />
    </marker>
  </defs>
  <rect x="0" y="0" width="1180" height="980" fill="#ffffff"/>
  
    <circle cx="590" cy="416" r="16" fill="#ffffff" stroke="#b5b5b5" stroke-width="2.6"/>
    <rect x="568" y="448" width="44" height="76" rx="6" ry="6" fill="#ffffff" stroke="#b5b5b5" stroke-width="2.6"/>
    <line x1="568" y1="468" x2="532" y2="496" stroke="#b5b5b5" stroke-width="2.4" stroke-linecap="round"/>
    <line x1="612" y1="468" x2="648" y2="496" stroke="#b5b5b5" stroke-width="2.4" stroke-linecap="round"/>
    <line x1="582" y1="488" x2="582" y2="558" stroke="#b5b5b5" stroke-width="2.4" stroke-linecap="round"/>
    <line x1="598" y1="488" x2="598" y2="558" stroke="#b5b5b5" stroke-width="2.4" stroke-linecap="round"/>
    <text x="590" y="590" font-family="SimSun, Songti SC, serif" font-size="28" font-weight="400" fill="#5c5c5c" text-anchor="middle" dominant-baseline="middle">管理员</text>
<line x1="560" y1="465" x2="290" y2="240" stroke="#b5b5b5" stroke-width="2.4" stroke-linecap="round"/>
<ellipse cx="290" cy="240" rx="110" ry="42" fill="#ffffff" stroke="#b5b5b5" stroke-width="2.6"/><text x="290" y="240" font-family="SimSun, Songti SC, serif" font-size="30" font-weight="400" fill="#5c5c5c" text-anchor="middle" dominant-baseline="middle">管理员登录</text>
<line x1="560" y1="465" x2="290" y2="440" stroke="#b5b5b5" stroke-width="2.4" stroke-linecap="round"/>
<ellipse cx="290" cy="440" rx="110" ry="42" fill="#ffffff" stroke="#b5b5b5" stroke-width="2.6"/><text x="290" y="440" font-family="SimSun, Songti SC, serif" font-size="30" font-weight="400" fill="#5c5c5c" text-anchor="middle" dominant-baseline="middle">用户管理</text>
<line x1="560" y1="465" x2="290" y2="640" stroke="#b5b5b5" stroke-width="2.4" stroke-linecap="round"/>
<ellipse cx="290" cy="640" rx="110" ry="42" fill="#ffffff" stroke="#b5b5b5" stroke-width="2.6"/><text x="290" y="640" font-family="SimSun, Songti SC, serif" font-size="30" font-weight="400" fill="#5c5c5c" text-anchor="middle" dominant-baseline="middle">兴趣点管理</text>
<line x1="620" y1="465" x2="890" y2="240" stroke="#b5b5b5" stroke-width="2.4" stroke-linecap="round"/>
<ellipse cx="890" cy="240" rx="110" ry="42" fill="#ffffff" stroke="#b5b5b5" stroke-width="2.6"/><text x="890" y="240" font-family="SimSun, Songti SC, serif" font-size="30" font-weight="400" fill="#5c5c5c" text-anchor="middle" dominant-baseline="middle">公告管理</text>
<line x1="620" y1="465" x2="890" y2="440" stroke="#b5b5b5" stroke-width="2.4" stroke-linecap="round"/>
<ellipse cx="890" cy="440" rx="110" ry="42" fill="#ffffff" stroke="#b5b5b5" stroke-width="2.6"/><text x="890" y="440" font-family="SimSun, Songti SC, serif" font-size="30" font-weight="400" fill="#5c5c5c" text-anchor="middle" dominant-baseline="middle">导航统计</text>
<line x1="620" y1="465" x2="890" y2="640" stroke="#b5b5b5" stroke-width="2.4" stroke-linecap="round"/>
<ellipse cx="890" cy="640" rx="110" ry="42" fill="#ffffff" stroke="#b5b5b5" stroke-width="2.6"/><text x="890" y="640" font-family="SimSun, Songti SC, serif" font-size="30" font-weight="400" fill="#5c5c5c" text-anchor="middle" dominant-baseline="middle">角色分配</text>
</svg>