<?xml version="1.0" encoding="UTF-8"?>
<svg xmlns="http://www.w3.org/2000/svg" width="1180" height="980" viewBox="0 0 1180 980" shape-rendering="geometricPrecision" text-rendering="geometricPrecision">
  <defs>
    <marker id="arrow" viewBox="0 0 10 10" refX="9" refY="5" markerWidth="7" markerHeight="7" orient="auto-start-reverse">
      <path d="M 0 0 L 10 5 L 0 10 z" fill="#202020" />
    </marker>
    <marker id="dashArrow" viewBox="0 0 10 10" refX="9" refY="5" markerWidth="7" markerHeight="7" orient="auto-start-reverse">
      <path d="M 0 0 L 10 5 L 0 10 z" fill="#555" />
    </marker>
  </defs>
  <rect x="0" y="0" width="1180" height="980" fill="#ffffff"/>
  
    <circle cx="590" cy="416" r="16" fill="#ffffff" stroke="#b5b5b5" stroke-width="2.6"/>
    <rect x="568" y="448" width="44" height="76" rx="6" ry="6" fill="#ffffff" stroke="#b5b5b5" stroke-width="2.6"/>
    <line x1="568" y1="468" x2="532" y2="496" stroke="#b5b5b5" stroke-width="2.4" stroke-linecap="round"/>
    <line x1="612" y1="468" x2="648" y2="496" stroke="#b5b5b5" stroke-width="2.4" stroke-linecap="round"/>
    <line x1="582" y1="488" x2="582" y2="558" stroke="#b5b5b5" stroke-width="2.4" stroke-linecap="round"/>
    <line x1="598" y1="488" x2="598" y2="558" stroke="#b5b5b5" stroke-width="2.4" stroke-linecap="round"/>
    <text x="590" y="590" font-family="SimSun, Songti SC, serif" font-size="28" font-weight="400" fill="#5c5c5c" text-anchor="middle" dominant-baseline="middle">用户</text>
<line x1="560" y1="465" x2="290" y2="180" stroke="#b5b5b5" stroke-width="2.4" stroke-linecap="round"/>
<ellipse cx="290" cy="180" rx="110" ry="42" fill="#ffffff" stroke="#b5b5b5" stroke-width="2.6"/><text x="290" y="180" font-family="SimSun, Songti SC, serif" font-size="30" font-weight="400" fill="#5c5c5c" text-anchor="middle" dominant-baseline="middle">注册登录</text>
<line x1="560" y1="465" x2="290" y2="340" stroke="#b5b5b5" stroke-width="2.4" stroke-linecap="round"/>
<ellipse cx="290" cy="340" rx="110" ry="42" fill="#ffffff" stroke="#b5b5b5" stroke-width="2.6"/><text x="290" y="340" font-family="SimSun, Songti SC, serif" font-size="30" font-weight="400" fill="#5c5c5c" text-anchor="middle" dominant-baseline="middle">地图浏览</text>
<line x1="560" y1="465" x2="290" y2="500" stroke="#b5b5b5" stroke-width="2.4" stroke-linecap="round"/>
<ellipse cx="290" cy="500" rx="110" ry="42" fill="#ffffff" stroke="#b5b5b5" stroke-width="2.6"/><text x="290" y="500" font-family="SimSun, Songti SC, serif" font-size="30" font-weight="400" fill="#5c5c5c" text-anchor="middle" dominant-baseline="middle">视角切换</text>
<line x1="560" y1="465" x2="290" y2="660" stroke="#b5b5b5" stroke-width="2.4" stroke-linecap="round"/>
<ellipse cx="290" cy="660" rx="110" ry="42" fill="#ffffff" stroke="#b5b5b5" stroke-width="2.6"/><text x="290" y="660" font-family="SimSun, Songti SC, serif" font-size="30" font-weight="400" fill="#5c5c5c" text-anchor="middle" dominant-baseline="middle">兴趣点搜索</text>
<line x1="560" y1="465" x2="290" y2="820" stroke="#b5b5b5" stroke-width="2.4" stroke-linecap="round"/>
<ellipse cx="290" cy="820" rx="110" ry="42" fill="#ffffff" stroke="#b5b5b5" stroke-width="2.6"/><text x="290" y="820" font-family="SimSun, Songti SC, serif" font-size="30" font-weight="400" fill="#5c5c5c" text-anchor="middle" dominant-baseline="middle">分类筛选</text>
<line x1="620" y1="465" x2="890" y2="220" stroke="#b5b5b5" stroke-width="2.4" stroke-linecap="round"/>
<ellipse cx="890" cy="220" rx="110" ry="42" fill="#ffffff" stroke="#b5b5b5" stroke-width="2.6"/><text x="890" y="220" font-family="SimSun, Songti SC, serif" font-size="30" font-weight="400" fill="#5c5c5c" text-anchor="middle" dominant-baseline="middle">路径规划</text>
<line x1="620" y1="465" x2="890" y2="400" stroke="#b5b5b5" stroke-width="2.4" stroke-linecap="round"/>
<ellipse cx="890" cy="400" rx="110" ry="42" fill="#ffffff" stroke="#b5b5b5" stroke-width="2.6"/><text x="890" y="400" font-family="SimSun, Songti SC, serif" font-size="30" font-weight="400" fill="#5c5c5c" text-anchor="middle" dominant-baseline="middle">步行时间估算</text>
<line x1="620" y1="465" x2="890" y2="580" stroke="#b5b5b5" stroke-width="2.4" stroke-linecap="round"/>
<ellipse cx="890" cy="580" rx="110" ry="42" fill="#ffffff" stroke="#b5b5b5" stroke-width="2.6"/><text x="890" y="580" font-family="SimSun, Songti SC, serif" font-size="30" font-weight="400" fill="#5c5c5c" text-anchor="middle" dominant-baseline="middle">统计图表查看</text>
<line x1="620" y1="465" x2="890" y2="760" stroke="#b5b5b5" stroke-width="2.4" stroke-linecap="round"/>
<ellipse cx="890" cy="760" rx="110" ry="42" fill="#ffffff" stroke="#b5b5b5" stroke-width="2.6"/><text x="890" y="760" font-family="SimSun, Songti SC, serif" font-size="30" font-weight="400" fill="#5c5c5c" text-anchor="middle" dominant-baseline="middle">游客浏览</text>
</svg>