<?xml version="1.0" encoding="UTF-8"?>
<svg xmlns="http://www.w3.org/2000/svg" width="1600" height="1200" viewBox="0 0 1600 1200" shape-rendering="geometricPrecision" text-rendering="geometricPrecision">
  <defs>
    <marker id="arrow" viewBox="0 0 10 10" refX="9" refY="5" markerWidth="7" markerHeight="7" orient="auto-start-reverse">
      <path d="M 0 0 L 10 5 L 0 10 z" fill="#202020" />
    </marker>
    <marker id="dashArrow" viewBox="0 0 10 10" refX="9" refY="5" markerWidth="7" markerHeight="7" orient="auto-start-reverse">
      <path d="M 0 0 L 10 5 L 0 10 z" fill="#555" />
    </marker>
  </defs>
  <rect x="0" y="0" width="1600" height="1200" fill="#ffffff"/>
  <rect x="870" y="920" width="220" height="60" rx="0" ry="0" fill="#fff" stroke="#202020" stroke-width="2.8"/>
<text x="980" y="950" font-family="SimHei, PingFang SC, sans-serif" font-size="24" font-weight="400" fill="#202020" text-anchor="middle" dominant-baseline="middle">用户</text>
<rect x="870" y="210" width="220" height="60" rx="0" ry="0" fill="#fff" stroke="#202020" stroke-width="2.8"/>
<text x="980" y="240" font-family="SimHei, PingFang SC, sans-serif" font-size="24" font-weight="400" fill="#202020" text-anchor="middle" dominant-baseline="middle">咨询师档案</text>
<rect x="1230" y="920" width="220" height="60" rx="0" ry="0" fill="#fff" stroke="#202020" stroke-width="2.8"/>
<text x="1340" y="950" font-family="SimHei, PingFang SC, sans-serif" font-size="24" font-weight="400" fill="#202020" text-anchor="middle" dominant-baseline="middle">排班</text>
<rect x="510" y="210" width="220" height="60" rx="0" ry="0" fill="#fff" stroke="#202020" stroke-width="2.8"/>
<text x="620" y="240" font-family="SimHei, PingFang SC, sans-serif" font-size="24" font-weight="400" fill="#202020" text-anchor="middle" dominant-baseline="middle">预约</text>
<rect x="510" y="920" width="220" height="60" rx="0" ry="0" fill="#fff" stroke="#202020" stroke-width="2.8"/>
<text x="620" y="950" font-family="SimHei, PingFang SC, sans-serif" font-size="24" font-weight="400" fill="#202020" text-anchor="middle" dominant-baseline="middle">社区帖子</text>
<rect x="1230" y="210" width="220" height="60" rx="0" ry="0" fill="#fff" stroke="#202020" stroke-width="2.8"/>
<text x="1340" y="240" font-family="SimHei, PingFang SC, sans-serif" font-size="24" font-weight="400" fill="#202020" text-anchor="middle" dominant-baseline="middle">评论</text>
<rect x="160" y="920" width="220" height="60" rx="0" ry="0" fill="#fff" stroke="#202020" stroke-width="2.8"/>
<text x="270" y="950" font-family="SimHei, PingFang SC, sans-serif" font-size="24" font-weight="400" fill="#202020" text-anchor="middle" dominant-baseline="middle">聊天消息</text>
<rect x="160" y="210" width="220" height="60" rx="0" ry="0" fill="#fff" stroke="#202020" stroke-width="2.8"/>
<text x="270" y="240" font-family="SimHei, PingFang SC, sans-serif" font-size="24" font-weight="400" fill="#202020" text-anchor="middle" dominant-baseline="middle">测评记录</text>
<path d="M 980 570 L 1030 600 L 980 630 L 930 600 Z" fill="#fff" stroke="#202020" stroke-width="3"/>
<text x="980" y="600" font-family="SimSun, Songti SC, serif" font-size="20" font-weight="400" fill="#202020" text-anchor="middle" dominant-baseline="middle">拥有</text>
<path d="M 980 920 L 980 630" fill="none" stroke="#202020" stroke-width="2.5" stroke-linecap="square" stroke-linejoin="miter"/>
<path d="M 980 570 L 980 280" fill="none" stroke="#202020" stroke-width="2.5" stroke-linecap="square" stroke-linejoin="miter"/>
<text x="960" y="865" font-family="SimSun, Songti SC, serif" font-size="22" font-weight="400" fill="#202020" text-anchor="middle" dominant-baseline="middle">1</text>
<text x="960" y="335" font-family="SimSun, Songti SC, serif" font-size="22" font-weight="400" fill="#202020" text-anchor="middle" dominant-baseline="middle">n</text>
<path d="M 1160 570 L 1210 600 L 1160 630 L 1100 600 Z" fill="#fff" stroke="#202020" stroke-width="3"/>
<text x="1160" y="600" font-family="SimSun, Songti SC, serif" font-size="20" font-weight="400" fill="#202020" text-anchor="middle" dominant-baseline="middle">安排</text>
<path d="M 980 280 L 1160 570" fill="none" stroke="#202020" stroke-width="2.5" stroke-linecap="square" stroke-linejoin="miter"/>
<path d="M 1160 630 L 1340 920" fill="none" stroke="#202020" stroke-width="2.5" stroke-linecap="square" stroke-linejoin="miter"/>
<text x="1035" y="317" font-family="SimSun, Songti SC, serif" font-size="22" font-weight="400" fill="#202020" text-anchor="middle" dominant-baseline="middle">1</text>
<text x="1311" y="867" font-family="SimSun, Songti SC, serif" font-size="22" font-weight="400" fill="#202020" text-anchor="middle" dominant-baseline="middle">n</text>
<path d="M 800 570 L 850 600 L 800 630 L 750 600 Z" fill="#fff" stroke="#202020" stroke-width="3"/>
<text x="800" y="600" font-family="SimSun, Songti SC, serif" font-size="20" font-weight="400" fill="#202020" text-anchor="middle" dominant-baseline="middle">预约</text>
<path d="M 980 920 L 800 630" fill="none" stroke="#202020" stroke-width="2.5" stroke-linecap="square" stroke-linejoin="miter"/>
<path d="M 800 570 L 620 280" fill="none" stroke="#202020" stroke-width="2.5" stroke-linecap="square" stroke-linejoin="miter"/>
<text x="922" y="883" font-family="SimSun, Songti SC, serif" font-size="22" font-weight="400" fill="#202020" text-anchor="middle" dominant-baseline="middle">1</text>
<text x="646" y="334" font-family="SimSun, Songti SC, serif" font-size="22" font-weight="400" fill="#202020" text-anchor="middle" dominant-baseline="middle">n</text>
<path d="M 800 920 L 850 960 L 800 990 L 750 960 Z" fill="#fff" stroke="#202020" stroke-width="3"/>
<text x="800" y="960" font-family="SimSun, Songti SC, serif" font-size="20" font-weight="400" fill="#202020" text-anchor="middle" dominant-baseline="middle">发布</text>
<path d="M 870 960 L 850 960" fill="none" stroke="#202020" stroke-width="2.5" stroke-linecap="square" stroke-linejoin="miter"/>
<path d="M 750 960 L 730 960" fill="none" stroke="#202020" stroke-width="2.5" stroke-linecap="square" stroke-linejoin="miter"/>
<text x="888" y="973" font-family="SimSun, Songti SC, serif" font-size="22" font-weight="400" fill="#202020" text-anchor="middle" dominant-baseline="middle">1</text>
<text x="712" y="973" font-family="SimSun, Songti SC, serif" font-size="22" font-weight="400" fill="#202020" text-anchor="middle" dominant-baseline="middle">n</text>
<path d="M 980 570 L 1030 600 L 980 630 L 930 600 Z" fill="#fff" stroke="#202020" stroke-width="3"/>
<text x="980" y="600" font-family="SimSun, Songti SC, serif" font-size="20" font-weight="400" fill="#202020" text-anchor="middle" dominant-baseline="middle">包含</text>
<path d="M 620 920 L 980 630" fill="none" stroke="#202020" stroke-width="2.5" stroke-linecap="square" stroke-linejoin="miter"/>
<path d="M 980 570 L 1340 280" fill="none" stroke="#202020" stroke-width="2.5" stroke-linecap="square" stroke-linejoin="miter"/>
<text x="673" y="879" font-family="SimSun, Songti SC, serif" font-size="22" font-weight="400" fill="#202020" text-anchor="middle" dominant-baseline="middle">1</text>
<text x="1259" y="296" font-family="SimSun, Songti SC, serif" font-size="22" font-weight="400" fill="#202020" text-anchor="middle" dominant-baseline="middle">n</text>
<path d="M 620 920 L 670 960 L 620 990 L 570 960 Z" fill="#fff" stroke="#202020" stroke-width="3"/>
<text x="620" y="960" font-family="SimSun, Songti SC, serif" font-size="20" font-weight="400" fill="#202020" text-anchor="middle" dominant-baseline="middle">发送</text>
<path d="M 870 960 L 670 960" fill="none" stroke="#202020" stroke-width="2.5" stroke-linecap="square" stroke-linejoin="miter"/>
<path d="M 570 960 L 380 960" fill="none" stroke="#202020" stroke-width="2.5" stroke-linecap="square" stroke-linejoin="miter"/>
<text x="888" y="973" font-family="SimSun, Songti SC, serif" font-size="22" font-weight="400" fill="#202020" text-anchor="middle" dominant-baseline="middle">1</text>
<text x="355" y="973" font-family="SimSun, Songti SC, serif" font-size="22" font-weight="400" fill="#202020" text-anchor="middle" dominant-baseline="middle">n</text>
<path d="M 620 570 L 670 600 L 620 630 L 570 600 Z" fill="#fff" stroke="#202020" stroke-width="3"/>
<text x="620" y="600" font-family="SimSun, Songti SC, serif" font-size="20" font-weight="400" fill="#202020" text-anchor="middle" dominant-baseline="middle">进行</text>
<path d="M 980 920 L 620 630" fill="none" stroke="#202020" stroke-width="2.5" stroke-linecap="square" stroke-linejoin="miter"/>
<path d="M 620 570 L 270 280" fill="none" stroke="#202020" stroke-width="2.5" stroke-linecap="square" stroke-linejoin="miter"/>
<text x="902" y="904" font-family="SimSun, Songti SC, serif" font-size="22" font-weight="400" fill="#202020" text-anchor="middle" dominant-baseline="middle">1</text>
<text x="316" y="321" font-family="SimSun, Songti SC, serif" font-size="22" font-weight="400" fill="#202020" text-anchor="middle" dominant-baseline="middle">n</text>
<path d="M 1090 960 L 1080 960" fill="none" stroke="#202020" stroke-width="2" stroke-linecap="square" stroke-linejoin="miter"/>
<ellipse cx="1150" cy="960" rx="70" ry="30" fill="#fff" stroke="#202020" stroke-width="3"/>
<text x="1150" y="960" font-family="SimSun, Songti SC, serif" font-size="15" font-weight="400" fill="#202020" text-anchor="middle" dominant-baseline="middle">用户名</text>
<path d="M 980 990 L 1080 1010" fill="none" stroke="#202020" stroke-width="2" stroke-linecap="square" stroke-linejoin="miter"/>
<ellipse cx="1120" cy="1030" rx="70" ry="30" fill="#fff" stroke="#202020" stroke-width="3"/>
<text x="1120" y="1030" font-family="SimSun, Songti SC, serif" font-size="15" font-weight="400" fill="#202020" text-anchor="middle" dominant-baseline="middle">邮箱</text>
<path d="M 980 990 L 1040 1060" fill="none" stroke="#202020" stroke-width="2" stroke-linecap="square" stroke-linejoin="miter"/>
<ellipse cx="1050" cy="1090" rx="70" ry="30" fill="#fff" stroke="#202020" stroke-width="3"/>
<text x="1050" y="1090" font-family="SimSun, Songti SC, serif" font-size="15" font-weight="400" fill="#202020" text-anchor="middle" dominant-baseline="middle">角色</text>
<path d="M 980 990 L 970 1110" fill="none" stroke="#202020" stroke-width="2" stroke-linecap="square" stroke-linejoin="miter"/>
<ellipse cx="960" cy="1140" rx="70" ry="30" fill="#fff" stroke="#202020" stroke-width="3"/>
<text x="960" y="1140" font-family="SimSun, Songti SC, serif" font-size="15" font-weight="400" fill="#202020" text-anchor="middle" dominant-baseline="middle">头像</text>
<path d="M 980 990 L 900 1060" fill="none" stroke="#202020" stroke-width="2" stroke-linecap="square" stroke-linejoin="miter"/>
<ellipse cx="880" cy="1080" rx="70" ry="30" fill="#fff" stroke="#202020" stroke-width="3"/>
<text x="880" y="1080" font-family="SimSun, Songti SC, serif" font-size="15" font-weight="400" fill="#202020" text-anchor="middle" dominant-baseline="middle">状态</text>
<path d="M 980 210 L 900 150" fill="none" stroke="#202020" stroke-width="2" stroke-linecap="square" stroke-linejoin="miter"/>
<ellipse cx="880" cy="130" rx="70" ry="30" fill="#fff" stroke="#202020" stroke-width="3"/>
<text x="880" y="130" font-family="SimSun, Songti SC, serif" font-size="15" font-weight="400" fill="#202020" text-anchor="middle" dominant-baseline="middle">专长领域</text>
<path d="M 980 210 L 990 100" fill="none" stroke="#202020" stroke-width="2" stroke-linecap="square" stroke-linejoin="miter"/>
<ellipse cx="990" cy="70" rx="70" ry="30" fill="#fff" stroke="#202020" stroke-width="3"/>
<text x="990" y="70" font-family="SimSun, Songti SC, serif" font-size="15" font-weight="400" fill="#202020" text-anchor="middle" dominant-baseline="middle">从业年限</text>
<path d="M 980 210 L 1070 160" fill="none" stroke="#202020" stroke-width="2" stroke-linecap="square" stroke-linejoin="miter"/>
<ellipse cx="1100" cy="130" rx="70" ry="30" fill="#fff" stroke="#202020" stroke-width="3"/>
<text x="1100" y="130" font-family="SimSun, Songti SC, serif" font-size="15" font-weight="400" fill="#202020" text-anchor="middle" dominant-baseline="middle">评分</text>
<path d="M 1090 250 L 1080 240" fill="none" stroke="#202020" stroke-width="2" stroke-linecap="square" stroke-linejoin="miter"/>
<ellipse cx="1150" cy="240" rx="70" ry="30" fill="#fff" stroke="#202020" stroke-width="3"/>
<text x="1150" y="240" font-family="SimSun, Songti SC, serif" font-size="15" font-weight="400" fill="#202020" text-anchor="middle" dominant-baseline="middle">等级</text>
<path d="M 1340 920 L 1440 900" fill="none" stroke="#202020" stroke-width="2" stroke-linecap="square" stroke-linejoin="miter"/>
<ellipse cx="1480" cy="870" rx="70" ry="30" fill="#fff" stroke="#202020" stroke-width="3"/>
<text x="1480" y="870" font-family="SimSun, Songti SC, serif" font-size="15" font-weight="400" fill="#202020" text-anchor="middle" dominant-baseline="middle">排班日期</text>
<path d="M 1450 960 L 1460 980" fill="none" stroke="#202020" stroke-width="2" stroke-linecap="square" stroke-linejoin="miter"/>
<ellipse cx="1520" cy="990" rx="70" ry="30" fill="#fff" stroke="#202020" stroke-width="3"/>
<text x="1520" y="990" font-family="SimSun, Songti SC, serif" font-size="15" font-weight="400" fill="#202020" text-anchor="middle" dominant-baseline="middle">开始时间</text>
<path d="M 1340 990 L 1410 1050" fill="none" stroke="#202020" stroke-width="2" stroke-linecap="square" stroke-linejoin="miter"/>
<ellipse cx="1430" cy="1070" rx="70" ry="30" fill="#fff" stroke="#202020" stroke-width="3"/>
<text x="1430" y="1070" font-family="SimSun, Songti SC, serif" font-size="15" font-weight="400" fill="#202020" text-anchor="middle" dominant-baseline="middle">结束时间</text>
<path d="M 1340 990 L 1320 1100" fill="none" stroke="#202020" stroke-width="2" stroke-linecap="square" stroke-linejoin="miter"/>
<ellipse cx="1320" cy="1130" rx="70" ry="30" fill="#fff" stroke="#202020" stroke-width="3"/>
<text x="1320" y="1130" font-family="SimSun, Songti SC, serif" font-size="15" font-weight="400" fill="#202020" text-anchor="middle" dominant-baseline="middle">状态</text>
<path d="M 510 250 L 520 240" fill="none" stroke="#202020" stroke-width="2" stroke-linecap="square" stroke-linejoin="miter"/>
<ellipse cx="450" cy="240" rx="70" ry="30" fill="#fff" stroke="#202020" stroke-width="3"/>
<text x="450" y="240" font-family="SimSun, Songti SC, serif" font-size="15" font-weight="400" fill="#202020" text-anchor="middle" dominant-baseline="middle">预约时间</text>
<path d="M 620 210 L 560 120" fill="none" stroke="#202020" stroke-width="2" stroke-linecap="square" stroke-linejoin="miter"/>
<ellipse cx="550" cy="100" rx="70" ry="30" fill="#fff" stroke="#202020" stroke-width="3"/>
<text x="550" y="100" font-family="SimSun, Songti SC, serif" font-size="15" font-weight="400" fill="#202020" text-anchor="middle" dominant-baseline="middle">状态</text>
<path d="M 620 210 L 700 140" fill="none" stroke="#202020" stroke-width="2" stroke-linecap="square" stroke-linejoin="miter"/>
<ellipse cx="720" cy="110" rx="70" ry="30" fill="#fff" stroke="#202020" stroke-width="3"/>
<text x="720" y="110" font-family="SimSun, Songti SC, serif" font-size="15" font-weight="400" fill="#202020" text-anchor="middle" dominant-baseline="middle">评分</text>
<path d="M 620 990 L 700 1050" fill="none" stroke="#202020" stroke-width="2" stroke-linecap="square" stroke-linejoin="miter"/>
<ellipse cx="720" cy="1070" rx="70" ry="30" fill="#fff" stroke="#202020" stroke-width="3"/>
<text x="720" y="1070" font-family="SimSun, Songti SC, serif" font-size="15" font-weight="400" fill="#202020" text-anchor="middle" dominant-baseline="middle">内容</text>
<path d="M 620 990 L 610 1100" fill="none" stroke="#202020" stroke-width="2" stroke-linecap="square" stroke-linejoin="miter"/>
<ellipse cx="610" cy="1130" rx="70" ry="30" fill="#fff" stroke="#202020" stroke-width="3"/>
<text x="610" y="1130" font-family="SimSun, Songti SC, serif" font-size="15" font-weight="400" fill="#202020" text-anchor="middle" dominant-baseline="middle">情绪标签</text>
<path d="M 620 990 L 530 1040" fill="none" stroke="#202020" stroke-width="2" stroke-linecap="square" stroke-linejoin="miter"/>
<ellipse cx="500" cy="1070" rx="70" ry="30" fill="#fff" stroke="#202020" stroke-width="3"/>
<text x="500" y="1070" font-family="SimSun, Songti SC, serif" font-size="15" font-weight="400" fill="#202020" text-anchor="middle" dominant-baseline="middle">点赞数</text>
<path d="M 510 960 L 520 960" fill="none" stroke="#202020" stroke-width="2" stroke-linecap="square" stroke-linejoin="miter"/>
<ellipse cx="450" cy="960" rx="70" ry="30" fill="#fff" stroke="#202020" stroke-width="3"/>
<text x="450" y="960" font-family="SimSun, Songti SC, serif" font-size="15" font-weight="400" fill="#202020" text-anchor="middle" dominant-baseline="middle">状态</text>
<path d="M 1340 210 L 1320 110" fill="none" stroke="#202020" stroke-width="2" stroke-linecap="square" stroke-linejoin="miter"/>
<ellipse cx="1320" cy="80" rx="70" ry="30" fill="#fff" stroke="#202020" stroke-width="3"/>
<text x="1320" y="80" font-family="SimSun, Songti SC, serif" font-size="15" font-weight="400" fill="#202020" text-anchor="middle" dominant-baseline="middle">帖子编号</text>
<path d="M 1340 210 L 1440 180" fill="none" stroke="#202020" stroke-width="2" stroke-linecap="square" stroke-linejoin="miter"/>
<ellipse cx="1470" cy="150" rx="70" ry="30" fill="#fff" stroke="#202020" stroke-width="3"/>
<text x="1470" y="150" font-family="SimSun, Songti SC, serif" font-size="15" font-weight="400" fill="#202020" text-anchor="middle" dominant-baseline="middle">内容</text>
<path d="M 1340 280 L 1440 300" fill="none" stroke="#202020" stroke-width="2" stroke-linecap="square" stroke-linejoin="miter"/>
<ellipse cx="1480" cy="330" rx="70" ry="30" fill="#fff" stroke="#202020" stroke-width="3"/>
<text x="1480" y="330" font-family="SimSun, Songti SC, serif" font-size="15" font-weight="400" fill="#202020" text-anchor="middle" dominant-baseline="middle">状态</text>
<path d="M 270 990 L 280 1110" fill="none" stroke="#202020" stroke-width="2" stroke-linecap="square" stroke-linejoin="miter"/>
<ellipse cx="280" cy="1130" rx="70" ry="30" fill="#fff" stroke="#202020" stroke-width="3"/>
<text x="280" y="1130" font-family="SimSun, Songti SC, serif" font-size="15" font-weight="400" fill="#202020" text-anchor="middle" dominant-baseline="middle">房间编号</text>
<path d="M 270 990 L 190 1060" fill="none" stroke="#202020" stroke-width="2" stroke-linecap="square" stroke-linejoin="miter"/>
<ellipse cx="170" cy="1080" rx="70" ry="30" fill="#fff" stroke="#202020" stroke-width="3"/>
<text x="170" y="1080" font-family="SimSun, Songti SC, serif" font-size="15" font-weight="400" fill="#202020" text-anchor="middle" dominant-baseline="middle">发送者</text>
<path d="M 160 960 L 140 980" fill="none" stroke="#202020" stroke-width="2" stroke-linecap="square" stroke-linejoin="miter"/>
<ellipse cx="80" cy="990" rx="70" ry="30" fill="#fff" stroke="#202020" stroke-width="3"/>
<text x="80" y="990" font-family="SimSun, Songti SC, serif" font-size="15" font-weight="400" fill="#202020" text-anchor="middle" dominant-baseline="middle">接收者</text>
<path d="M 270 920 L 160 900" fill="none" stroke="#202020" stroke-width="2" stroke-linecap="square" stroke-linejoin="miter"/>
<ellipse cx="120" cy="870" rx="70" ry="30" fill="#fff" stroke="#202020" stroke-width="3"/>
<text x="120" y="870" font-family="SimSun, Songti SC, serif" font-size="15" font-weight="400" fill="#202020" text-anchor="middle" dominant-baseline="middle">内容</text>
<path d="M 270 280 L 160 300" fill="none" stroke="#202020" stroke-width="2" stroke-linecap="square" stroke-linejoin="miter"/>
<ellipse cx="120" cy="330" rx="70" ry="30" fill="#fff" stroke="#202020" stroke-width="3"/>
<text x="120" y="330" font-family="SimSun, Songti SC, serif" font-size="15" font-weight="400" fill="#202020" text-anchor="middle" dominant-baseline="middle">量表类型</text>
<path d="M 270 210 L 160 180" fill="none" stroke="#202020" stroke-width="2" stroke-linecap="square" stroke-linejoin="miter"/>
<ellipse cx="130" cy="150" rx="70" ry="30" fill="#fff" stroke="#202020" stroke-width="3"/>
<text x="130" y="150" font-family="SimSun, Songti SC, serif" font-size="15" font-weight="400" fill="#202020" text-anchor="middle" dominant-baseline="middle">总分</text>
<path d="M 270 210 L 280 110" fill="none" stroke="#202020" stroke-width="2" stroke-linecap="square" stroke-linejoin="miter"/>
<ellipse cx="280" cy="80" rx="70" ry="30" fill="#fff" stroke="#202020" stroke-width="3"/>
<text x="280" y="80" font-family="SimSun, Songti SC, serif" font-size="15" font-weight="400" fill="#202020" text-anchor="middle" dominant-baseline="middle">严重程度</text>
</svg>