<?xml version="1.0" encoding="UTF-8"?>
<svg xmlns="http://www.w3.org/2000/svg" width="1600" height="1400" viewBox="0 0 1600 1400" shape-rendering="geometricPrecision" text-rendering="geometricPrecision">
  <defs>
    <marker id="arrow" viewBox="0 0 10 10" refX="9" refY="5" markerWidth="7" markerHeight="7" orient="auto-start-reverse">
      <path d="M 0 0 L 10 5 L 0 10 z" fill="#202020" />
    </marker>
    <marker id="dashArrow" viewBox="0 0 10 10" refX="9" refY="5" markerWidth="7" markerHeight="7" orient="auto-start-reverse">
      <path d="M 0 0 L 10 5 L 0 10 z" fill="#555" />
    </marker>
  </defs>
  <rect x="0" y="0" width="1600" height="1400" fill="#ffffff"/>
  <rect x="680" y="60" width="240" height="70" rx="16" ry="16" fill="#fff" stroke="#202020" stroke-width="3"/>
<text x="800" y="95" font-family="SimSun, Songti SC, serif" font-size="26" font-weight="400" fill="#202020" text-anchor="middle" dominant-baseline="middle">同步采集开始</text>
<path d="M 740 130 L 500 190" fill="none" stroke="#202020" stroke-width="3" stroke-linecap="square" stroke-linejoin="miter" marker-end="url(#arrow)"/>
<path d="M 860 130 L 1100 190" fill="none" stroke="#202020" stroke-width="3" stroke-linecap="square" stroke-linejoin="miter" marker-end="url(#arrow)"/>
<text x="500" y="170" font-family="SimHei, PingFang SC, sans-serif" font-size="22" font-weight="400" fill="#202020" text-anchor="middle" dominant-baseline="middle">EEG通道</text>
<rect x="350" y="200" width="300" height="70" rx="0" ry="0" fill="#fff" stroke="#202020" stroke-width="3"/>
<text x="500" y="223" font-family="SimSun, Songti SC, serif" font-size="20" font-weight="400" fill="#202020" text-anchor="middle" dominant-baseline="middle">读取原始EEG
(64通道,</text>
<text x="500" y="247" font-family="SimSun, Songti SC, serif" font-size="20" font-weight="400" fill="#202020" text-anchor="middle" dominant-baseline="middle">5000Hz)</text>
<path d="M 500 270 L 500 300" fill="none" stroke="#202020" stroke-width="3" stroke-linecap="square" stroke-linejoin="miter" marker-end="url(#arrow)"/>
<rect x="350" y="300" width="300" height="70" rx="0" ry="0" fill="#fff" stroke="#202020" stroke-width="3"/>
<text x="500" y="335" font-family="SimSun, Songti SC, serif" font-size="20" font-weight="400" fill="#202020" text-anchor="middle" dominant-baseline="middle">梯度伪迹去除
(AAS算法)</text>
<path d="M 500 370 L 500 400" fill="none" stroke="#202020" stroke-width="3" stroke-linecap="square" stroke-linejoin="miter" marker-end="url(#arrow)"/>
<rect x="350" y="400" width="300" height="70" rx="0" ry="0" fill="#fff" stroke="#202020" stroke-width="3"/>
<text x="500" y="435" font-family="SimSun, Songti SC, serif" font-size="20" font-weight="400" fill="#202020" text-anchor="middle" dominant-baseline="middle">降采样
(5000→200Hz)</text>
<path d="M 500 470 L 500 500" fill="none" stroke="#202020" stroke-width="3" stroke-linecap="square" stroke-linejoin="miter" marker-end="url(#arrow)"/>
<rect x="350" y="500" width="300" height="70" rx="0" ry="0" fill="#fff" stroke="#202020" stroke-width="3"/>
<text x="500" y="535" font-family="SimSun, Songti SC, serif" font-size="20" font-weight="400" fill="#202020" text-anchor="middle" dominant-baseline="middle">FIR低通滤波
(截止50Hz)</text>
<path d="M 500 570 L 500 600" fill="none" stroke="#202020" stroke-width="3" stroke-linecap="square" stroke-linejoin="miter" marker-end="url(#arrow)"/>
<rect x="350" y="600" width="300" height="70" rx="0" ry="0" fill="#fff" stroke="#202020" stroke-width="3"/>
<text x="500" y="635" font-family="SimSun, Songti SC, serif" font-size="20" font-weight="400" fill="#202020" text-anchor="middle" dominant-baseline="middle">BCG心搏伪迹校正</text>
<path d="M 500 670 L 500 700" fill="none" stroke="#202020" stroke-width="3" stroke-linecap="square" stroke-linejoin="miter" marker-end="url(#arrow)"/>
<rect x="350" y="700" width="300" height="70" rx="0" ry="0" fill="#fff" stroke="#202020" stroke-width="3"/>
<text x="500" y="723" font-family="SimSun, Songti SC, serif" font-size="19" font-weight="400" fill="#202020" text-anchor="middle" dominant-baseline="middle">运动区9通道选择
(</text>
<text x="500" y="747" font-family="SimSun, Songti SC, serif" font-size="19" font-weight="400" fill="#202020" text-anchor="middle" dominant-baseline="middle">FC1/FC2/C1-C4/CP1/CP2/Cz)</text>
<text x="1100" y="170" font-family="SimHei, PingFang SC, sans-serif" font-size="22" font-weight="400" fill="#202020" text-anchor="middle" dominant-baseline="middle">fMRI通道</text>
<rect x="950" y="200" width="300" height="70" rx="0" ry="0" fill="#fff" stroke="#202020" stroke-width="3"/>
<text x="1100" y="223" font-family="SimSun, Songti SC, serif" font-size="20" font-weight="400" fill="#202020" text-anchor="middle" dominant-baseline="middle">读取原始fMRI
(TR=2s, 3T</text>
<text x="1100" y="247" font-family="SimSun, Songti SC, serif" font-size="20" font-weight="400" fill="#202020" text-anchor="middle" dominant-baseline="middle">Siemens)</text>
<path d="M 1100 270 L 1100 300" fill="none" stroke="#202020" stroke-width="3" stroke-linecap="square" stroke-linejoin="miter" marker-end="url(#arrow)"/>
<rect x="950" y="300" width="300" height="70" rx="0" ry="0" fill="#fff" stroke="#202020" stroke-width="3"/>
<text x="1100" y="335" font-family="SimSun, Songti SC, serif" font-size="20" font-weight="400" fill="#202020" text-anchor="middle" dominant-baseline="middle">运动校正
空间标准化</text>
<path d="M 1100 370 L 1100 400" fill="none" stroke="#202020" stroke-width="3" stroke-linecap="square" stroke-linejoin="miter" marker-end="url(#arrow)"/>
<rect x="950" y="400" width="300" height="70" rx="0" ry="0" fill="#fff" stroke="#202020" stroke-width="3"/>
<text x="1100" y="435" font-family="SimSun, Songti SC, serif" font-size="20" font-weight="400" fill="#202020" text-anchor="middle" dominant-baseline="middle">平滑滤波
时间域滤波</text>
<path d="M 1100 470 L 1100 500" fill="none" stroke="#202020" stroke-width="3" stroke-linecap="square" stroke-linejoin="miter" marker-end="url(#arrow)"/>
<rect x="950" y="500" width="300" height="70" rx="0" ry="0" fill="#fff" stroke="#202020" stroke-width="3"/>
<text x="1100" y="535" font-family="SimSun, Songti SC, serif" font-size="20" font-weight="400" fill="#202020" text-anchor="middle" dominant-baseline="middle">ROI提取
(左/右运动皮层)</text>
<path d="M 1100 570 L 1100 600" fill="none" stroke="#202020" stroke-width="3" stroke-linecap="square" stroke-linejoin="miter" marker-end="url(#arrow)"/>
<rect x="950" y="600" width="300" height="70" rx="0" ry="0" fill="#fff" stroke="#202020" stroke-width="3"/>
<text x="1100" y="635" font-family="SimSun, Songti SC, serif" font-size="20" font-weight="400" fill="#202020" text-anchor="middle" dominant-baseline="middle">BOLD信号
时间序列导出</text>
<rect x="350" y="810" width="300" height="70" rx="0" ry="0" fill="#fff" stroke="#202020" stroke-width="3"/>
<text x="500" y="833" font-family="SimSun, Songti SC, serif" font-size="20" font-weight="400" fill="#202020" text-anchor="middle" dominant-baseline="middle">EEG特征提取
(时域/频域/NF得</text>
<text x="500" y="857" font-family="SimSun, Songti SC, serif" font-size="20" font-weight="400" fill="#202020" text-anchor="middle" dominant-baseline="middle">分)</text>
<rect x="950" y="810" width="300" height="70" rx="0" ry="0" fill="#fff" stroke="#202020" stroke-width="3"/>
<text x="1100" y="845" font-family="SimSun, Songti SC, serif" font-size="20" font-weight="400" fill="#202020" text-anchor="middle" dominant-baseline="middle">BOLD特征提取
(ROI衍生指标)</text>
<path d="M 500 770 L 500 810" fill="none" stroke="#202020" stroke-width="3" stroke-linecap="square" stroke-linejoin="miter" marker-end="url(#arrow)"/>
<path d="M 1100 670 L 1100 810" fill="none" stroke="#202020" stroke-width="3" stroke-linecap="square" stroke-linejoin="miter" marker-end="url(#arrow)"/>
<path d="M 800 870 L 990 940 L 800 1010 L 610 940 Z" fill="#fff" stroke="#202020" stroke-width="3"/>
<text x="800" y="940" font-family="SimSun, Songti SC, serif" font-size="22" font-weight="400" fill="#202020" text-anchor="middle" dominant-baseline="middle">是否进行
多模态融合?</text>
<path d="M 500 880 L 500 870 L 610 940" fill="none" stroke="#202020" stroke-width="3" stroke-linecap="square" stroke-linejoin="miter" marker-end="url(#arrow)"/>
<path d="M 1100 880 L 1100 870 L 990 940" fill="none" stroke="#202020" stroke-width="3" stroke-linecap="square" stroke-linejoin="miter" marker-end="url(#arrow)"/>
<text x="820" y="1025" font-family="SimSun, Songti SC, serif" font-size="22" font-weight="400" fill="#202020" text-anchor="middle" dominant-baseline="middle">是</text>
<rect x="640" y="1040" width="320" height="70" rx="0" ry="0" fill="#fff" stroke="#202020" stroke-width="3"/>
<text x="800" y="1062" font-family="SimSun, Songti SC, serif" font-size="22" font-weight="400" fill="#202020" text-anchor="middle" dominant-baseline="middle">特征级融合
(15维融合特征集</text>
<text x="800" y="1088" font-family="SimSun, Songti SC, serif" font-size="22" font-weight="400" fill="#202020" text-anchor="middle" dominant-baseline="middle">)</text>
<path d="M 800 1010 L 800 1040" fill="none" stroke="#202020" stroke-width="3" stroke-linecap="square" stroke-linejoin="miter" marker-end="url(#arrow)"/>
<text x="1010" y="920" font-family="SimSun, Songti SC, serif" font-size="22" font-weight="400" fill="#202020" text-anchor="middle" dominant-baseline="middle">否</text>
<rect x="1250" y="910" width="260" height="70" rx="0" ry="0" fill="#fff" stroke="#202020" stroke-width="3"/>
<text x="1380" y="933" font-family="SimSun, Songti SC, serif" font-size="20" font-weight="400" fill="#202020" text-anchor="middle" dominant-baseline="middle">单模态特征集
(EEG或</text>
<text x="1380" y="957" font-family="SimSun, Songti SC, serif" font-size="20" font-weight="400" fill="#202020" text-anchor="middle" dominant-baseline="middle">BOLD)</text>
<path d="M 990 940 L 1250 940" fill="none" stroke="#202020" stroke-width="3" stroke-linecap="square" stroke-linejoin="miter" marker-end="url(#arrow)"/>
<path d="M 1380 980 L 1380 1180 L 960 1180" fill="none" stroke="#202020" stroke-width="3" stroke-linecap="square" stroke-linejoin="miter" marker-end="url(#arrow)"/>
<rect x="640" y="1140" width="320" height="70" rx="0" ry="0" fill="#fff" stroke="#202020" stroke-width="3"/>
<text x="800" y="1162" font-family="SimSun, Songti SC, serif" font-size="22" font-weight="400" fill="#202020" text-anchor="middle" dominant-baseline="middle">机器学习分类
(SVM / kNN /</text>
<text x="800" y="1188" font-family="SimSun, Songti SC, serif" font-size="22" font-weight="400" fill="#202020" text-anchor="middle" dominant-baseline="middle">RF)</text>
<path d="M 800 1110 L 800 1140" fill="none" stroke="#202020" stroke-width="3" stroke-linecap="square" stroke-linejoin="miter" marker-end="url(#arrow)"/>
<rect x="100" y="910" width="240" height="70" rx="0" ry="0" fill="#fff" stroke="#202020" stroke-width="3"/>
<text x="220" y="933" font-family="SimSun, Songti SC, serif" font-size="19" font-weight="400" fill="#202020" text-anchor="middle" dominant-baseline="middle">脑功能网络构建
(图论指</text>
<text x="220" y="957" font-family="SimSun, Songti SC, serif" font-size="19" font-weight="400" fill="#202020" text-anchor="middle" dominant-baseline="middle">标分析)</text>
<path d="M 610 940 L 340 940" fill="none" stroke="#202020" stroke-width="3" stroke-linecap="square" stroke-linejoin="miter" stroke-dasharray="8 6"/>
<path d="M 240 940 L 340 940" fill="none" stroke="#202020" stroke-width="3" stroke-linecap="square" stroke-linejoin="miter" stroke-dasharray="8 6"/>
<path d="M 350 850 L 340 850 L 340 940 L 340 940" fill="none" stroke="#202020" stroke-width="3" stroke-linecap="square" stroke-linejoin="miter"/>
<path d="M 340 940 L 340 940" fill="none" stroke="#202020" stroke-width="3" stroke-linecap="square" stroke-linejoin="miter"/>
<path d="M 350 850 L 220 850 L 220 910" fill="none" stroke="#202020" stroke-width="3" stroke-linecap="square" stroke-linejoin="miter" stroke-dasharray="8 6" marker-end="url(#dashArrow)"/>
<rect x="640" y="1240" width="320" height="70" rx="0" ry="0" fill="#fff" stroke="#202020" stroke-width="3"/>
<text x="800" y="1263" font-family="SimSun, Songti SC, serif" font-size="20" font-weight="400" fill="#202020" text-anchor="middle" dominant-baseline="middle">性能评估
(准确率/精确率/召回率</text>
<text x="800" y="1287" font-family="SimSun, Songti SC, serif" font-size="20" font-weight="400" fill="#202020" text-anchor="middle" dominant-baseline="middle">/F1)</text>
<path d="M 800 1210 L 800 1240" fill="none" stroke="#202020" stroke-width="3" stroke-linecap="square" stroke-linejoin="miter" marker-end="url(#arrow)"/>
<rect x="680" y="1340" width="240" height="70" rx="16" ry="16" fill="#fff" stroke="#202020" stroke-width="3"/>
<text x="800" y="1375" font-family="SimSun, Songti SC, serif" font-size="26" font-weight="400" fill="#202020" text-anchor="middle" dominant-baseline="middle">输出结果</text>
<path d="M 800 1310 L 800 1340" fill="none" stroke="#202020" stroke-width="3" stroke-linecap="square" stroke-linejoin="miter" marker-end="url(#arrow)"/>
</svg>